/* XPM */
static char * cell_xpm[] = {
"16 16 3 1",
" 	c None",
".	c #353535",
"+	c #1C1C1C",
"                ",
"                ",
" . . . . . . .  ",
"                ",
" .     .     .  ",
"                ",
" .     .     .  ",
"                ",
" +++++++ . . .  ",
" +     +        ",
" +     +     .  ",
" +     +        ",
" +     +     .  ",
" +     +        ",
" +++++++ . . .  ",
"                "};
