/* XPM */
static char * logo_left_xpm[] = {
/* width height ncolors chars_per_pixel */
"56 70 208 2",
/* colors */
"AA c #000000",
"BA c #010100",
"CA c #010101",
"DA c #020200",
"EA c #020202",
"FA c #030200",
"GA c #030303",
"HA c #040300",
"IA c #040404",
"JA c #050300",
"KA c #050505",
"LA c #060400",
"MA c #060606",
"NA c #070400",
"OA c #070707",
"PA c #080808",
"AB c #0A0600",
"BB c #0C0700",
"CB c #0C0C0C",
"DB c #0D0D0D",
"EB c #111111",
"FB c #121212",
"GB c #130A00",
"HB c #131313",
"IB c #141414",
"JB c #161616",
"KB c #171717",
"LB c #181818",
"MB c #190D00",
"NB c #191919",
"OB c #1A0E00",
"PB c #1A1A1A",
"AC c #1C0F00",
"BC c #1C1C1C",
"CC c #1D0F00",
"DC c #211100",
"EC c #221200",
"FC c #232323",
"GC c #252525",
"HC c #261400",
"IC c #262626",
"JC c #281500",
"KC c #282828",
"LC c #292929",
"MC c #2A1600",
"NC c #2C2C2C",
"OC c #2E2E2E",
"PC c #2F2F2F",
"AD c #333333",
"BD c #353535",
"CD c #361C00",
"DD c #373737",
"ED c #381D00",
"FD c #383838",
"GD c #393939",
"HD c #3A3A3A",
"ID c #3B3B3B",
"JD c #3C1F00",
"KD c #3E3E3E",
"LD c #404040",
"MD c #412100",
"ND c #422200",
"OD c #424242",
"PD c #442300",
"AE c #454545",
"BE c #482500",
"CE c #492500",
"DE c #494949",
"EE c #4B4B4B",
"FE c #4D4D4D",
"GE c #4E2800",
"HE c #4E4E4E",
"IE c #4F4F4F",
"JE c #505050",
"KE c #512900",
"LE c #545454",
"ME c #555555",
"NE c #585858",
"OE c #5A5A5A",
"PE c #5F3000",
"AF c #5F5F5F",
"BF c #606060",
"CF c #613100",
"DF c #623200",
"EF c #643300",
"FF c #666666",
"GF c #673400",
"HF c #676767",
"IF c #6B3600",
"JF c #6C3700",
"KF c #6C6C6C",
"LF c #6D3700",
"MF c #6E3800",
"NF c #6F6F6F",
"OF c #703900",
"PF c #707070",
"AG c #723A00",
"BG c #727272",
"CG c #737373",
"DG c #743B00",
"EG c #777777",
"FG c #793D00",
"GG c #7A7A7A",
"HG c #7E4000",
"IG c #7E7E7E",
"JG c #7F4000",
"KG c #7F7F7F",
"LG c #814100",
"MG c #818181",
"NG c #824200",
"OG c #838383",
"PG c #858585",
"AH c #868686",
"BH c #894500",
"CH c #8B8B8B",
"DH c #8C4700",
"EH c #8F8F8F",
"FH c #934A00",
"GH c #949494",
"HH c #964C00",
"IH c #974C00",
"JH c #979797",
"KH c #994D00",
"LH c #9A9A9A",
"MH c #9D4F00",
"NH c #A05100",
"OH c #A55300",
"PH c #A7A7A7",
"AI c #A95500",
"BI c #AB5600",
"CI c #ABABAB",
"DI c #B25A00",
"EI c #B3B3B3",
"FI c #B55B00",
"GI c #B65C00",
"HI c #B6B6B6",
"II c #B75C00",
"JI c #BA5E00",
"KI c #BABABA",
"LI c #BCBCBC",
"MI c #BDBDBD",
"NI c #BE6000",
"OI c #BEBEBE",
"PI c #C06100",
"AJ c #C0C0C0",
"BJ c #C1C1C1",
"CJ c #C2C2C2",
"DJ c #C56300",
"EJ c #C66400",
"FJ c #C6C6C6",
"GJ c #C76400",
"HJ c #C7C7C7",
"IJ c #C86500",
"JJ c #C8C8C8",
"KJ c #C96500",
"LJ c #C9C9C9",
"MJ c #CCCCCC",
"NJ c #CECECE",
"OJ c #D26A00",
"PJ c #D2D2D2",
"AK c #D36A00",
"BK c #D3D3D3",
"CK c #D46B00",
"DK c #D9D9D9",
"EK c #DB6E00",
"FK c #DCDCDC",
"GK c #DD6F00",
"HK c #DDDDDD",
"IK c #DE7000",
"JK c #DEDEDE",
"KK c #DFDFDF",
"LK c #E17100",
"MK c #E2E2E2",
"NK c #E37200",
"OK c #E3E3E3",
"PK c #E57300",
"AL c #E6E6E6",
"BL c #E77400",
"CL c #E8E8E8",
"DL c #E9E9E9",
"EL c #EA7600",
"FL c #EDEDED",
"GL c #EFEFEF",
"HL c #F0F0F0",
"IL c #F17900",
"JL c #F2F2F2",
"KL c #F37A00",
"LL c #F4F4F4",
"ML c #F5F5F5",
"NL c #F67C00",
"OL c #F6F6F6",
"PL c #F77C00",
"AM c #F7F7F7",
"BM c #F8F8F8",
"CM c #F97D00",
"DM c #F9F9F9",
"EM c #FA7E00",
"FM c #FAFAFA",
"GM c #FB7E00",
"HM c #FBFBFB",
"IM c #FC7F00",
"JM c #FCFCFC",
"KM c #FD7F00",
"LM c #FDFDFD",
"MM c #FE8000",
"NM c #FEFEFE",
"OM c #FF8000",
"PM c #FFFFFF",
/* pixels */
"AAAAAAAAAAAAAAAAAAAAAAAAAAAAAAAAAAAAAAAAAAAAAAAAAAAAAAAAAAAAAAAAAAAAAAAAAAAAAAAAAAAAAAAAAAAAAAAAAAAAAAAAAAAAAAAA",
"AAAAAAAAAAAAAAAAAAAAAAAAAAAAAAAAAAAAAAAAAAAAAAAAAAAAAAAAAAAAAAAAAAAAAAAAAAAAAAAAAAAAAAAAAAAAAAAAAAAAAAAAAAAAAAAA",
"AAAAAAAAAAAAAAAAAAAAAAAAAAAAAAAAAAAAAAAAAAAAAAAAAAAAAAAAAAAAAAAAAAAAAAAAAAAAAAAAAAAAAAAAAAAAAAAAAAAAAAAAAAAAAAAA",
"AAAAAAAAAAAAAAAAAAAAAAAAAAAAAAAAAAAAAAAAAAAAAAAAAAAAAAAAAAAAAAAAAAAAAAAAAAAAAAAAAAAAAAAAAAAAAAAAAAAAAAAAAAAAAAAA",
"AAAAAAAAAAAAAAAAAAAAAAAAAAAAAAAAAAAAAAAAAAAAAAAAAAAAAAAAAAAAAAAAAAAAAAAAAAAAAAAAAAAAAAAAAAAAAAAAAAAAAAAAAAAAAAAA",
"AAAAAAAAAAAAAAAAAAAAAAAAAAAAAAAAAAAAAAAAAAAAAAAAAAAAAAAAAAAAAAAAAAAAAAAAAAAAAAAAAAAAAAAAAAAAAAAAAAAAAAAAAAAAAAAA",
"AAAAAAAAAAAAAAAAAAAAAAAAAAAAAAAAAAAAAAAAAAAAAAAAAAAAAAAAAAAAAAAAAAAAAAAAAAAAAAAAAAAAAAAAAAAAAAAAAAAAAAAAAAAAAAAA",
"AAAAAAAAAAAAAAAAAAAAAAAAAAAAAAAAAAAAAAAAAAAAAAAAAAAAAAAAAAAAAAAAAAAAAAAAAAAAAAAAAAAAAAAAAAAAAAAAAAAAAAAAAAAAAAAA",
"AAAAAAAAAAAAAAAAAAAAAAAAAAAAAAAAAAAAAAAAAAAAAAAAAAAAAAAAAAAAAAAAAAAAAAAAAAAAAAAAAAAAAAAAAAAAAAAAAAAAAAAAAAAAAAAA",
"AAAAAAAAAAAAAAAAAAAAAAAAAAAAAAAAAAAAAAAAAAAAAAAAAAAAAAAAAAAAAAAAAAAAAAAAAAAAAAAAAAAAAAAAAAAAAAAAAAAAAAAAAAAAAAAA",
"AAAAAAAAAAAAAAAAAAAAAAAAAAAAAAAAAAAAAAAAAAAAAAAAAAAAAAAAAAAAAAAAAAAAAAAAAAAAAAAAAAAAAAAAAAAAAAAAAAAAAAAAAAAAAAAA",
"AAAAAAAAAAAAAAAAAAAAAAAAAAAAAAAAAAAAAAAAAAAAAAAAAAAAAAAAAAAAAAAAAAAAAAAAAAAAAAAAAAAAAAAAAAAAAAAAAAAAAAAAAAAAAAAA",
"AAAAAAAAAAAAAAAAAAAAAAAAAAAAPBDDJBAAAAAAAAAAAAAAAAAAAAAAAAAAAAAAAAAAAAAAAAAAAAAAAAEAFCIDGCKAAAAAAAAAAAAAAAAAAAAA",
"AAAAAAAAAAAAAAAAAAAAAAGAIGDLPMPMPMFJHDAAAAAACHPMPMPMPMDMPJLHNBAAAAAACHPMPMEAAAAANEHKPMPMPMDLEGAAAAAAAAAAAAAAAAAA",
"AAAAAAAAAAAAAAAAAAAAKAAJPMPMNMJLPMPMAMFDAAAACHPMPMPMPMPMPMPMGLKDAAAACHPMPMEAAAIENMPMKKLIALPMPMGGAAAAAAAAAAAAAAAA",
"AAAAAAAAAAAAAAAAAAAANFPMPMEHFBGALDHLPMNJAAAACHPMPMLCKCAECHLMPMDKMAAACHPMPMEAAAEIPMHJGAAAIAKIPMMKAAAAAAAAAAAAAAAA",
"AAAAAAAAAAAAAAAAAAIAFLPMMIAAAAAAAAKFOKMKIBAACHPMPMEAAAAAAACGPMPMOEAACHPMPMEAAAPJPMOIGAAAAAFDOGOGMAAAAAAAAAAAAAAA",
"AAAAAAAAAAAAAAAAAAGCPMPMAFAAAAAAAAAAAAAAAAAACHPMPMEAAAAAAACBHMPMPGAACHPMPMEAAALHPMPMFKAHLDMAAAAAAAAAAAAAAAAAAAAA",
"AAAAAAAAAAAAAAAAAAFEPMPMHDAAAALDPGPGPGPGBDAACHPMPMEAAAAAAAAAOKPMCIAACHPMPMEAAAHBPJPMPMPMPMLLGHEBAAAAAAAAAAAAAAAA",
"AAAAAAAAAAAAAAAAAAHEPMPMGDAAAAGGPMPMPMPMFFAACHPMPMEAAAAAAAAAKKPMPHAACHPMPMEAAAAAIABFHIOLPMPMPMJJOAAAAAAAAAAAAAAA",
"AAAAAAAAAAAAAAAAAAICPMPMAFAAAAHDGGKGLMPMFFAACHPMPMEAAAAAAAOAJMPMPGAACHPMPMEAAAAAAAAAAAPAFEMJPMPMODAAAAAAAAAAAAAA",
"AAAAAAAAAAAAAAAAAAIAFLPMBJAAAAAAAALEPMPMFFAACHPMPMEAAAAAAAKFPMPMJEAACHPMPMEANCDMDMDEAAAAAALBPMPMPFAAAAAAAAAAAAAA",
"AAAAAAAAAAAAAAAAAAAAPFPMPMJHJBKAEEPJPMPMFFAACHPMPMPCOCGDIGBMPMBKCAAACHPMPMEAIAOLPMOIDBAAAAFEPMPMDEAAAAAAAAAAAAAA",
"AAAAAAAAAAAAAAAAAAAAKACJPMPMPMMLPMPMFLPMFFAACHPMPMPMPMPMPMPMDLGDAAAACHPMPMEAAABGPMPMHLCJNJNMPMLJMAAAAAAAAAAAAAAA",
"AAAAAAAAAAAAAAAAAAAAAAGAIGCLPMPMHMMGMEPMFFAACHPMPMPMPMBMMJJHNBAAAAAACHPMPMEAAAAAHFJKPMPMPMFMLHKBAAAAAAAAAAAAAAAA",
"AAAAAAAAAAAAAAAAAAAAAAAAAAAANBADPAAAAAAAAAAAAAAAAAAAAAAAAAAAAAAAAAAAAAAAAAAAAAAAAAEABCGDICMAAAAAAAAAAAAAAAAAAAAA",
"AAAAAAAAAAAAAAAAAAAAAAAAAAAAAAAAAAAAAAAAAAAAAAAAAAAAAAAAAAAAAAAAAAAAAAAAAAAAAAAAAAAAAAAAAAAAAAAAAAAAAAAAAAAAAAAA",
"AAAAAAAAAAAAAAAAAAAAAAAAAAAAAAAAAAAAAAAAAAAAAAAAAAAAAAAAAAAAAAAAAAAAAAAAAAAAAAAAAAAAAAAAAAAAAAAAAAAAAAAAAAAAAAAA",
"AAAAAAAAAAAAAAAAAAAAAAAAAAAAAAAAAAAAAAAAAAAAAAAAAAAAAAAAAAAAAAAAAAAAAAAAAAAAAAAAAAAAAAAAAAAAAAAAAAAAAAAAAAAAAAAA",
"AAAAAAAAAAAAAAAAAAAAAAAAAAAAAAAAAAAAAAAAAAAAAAAAAAAAAAAAAAAAAAAAAAAAAAAAAAAAAAAAAAAAAAAAAAAAAAAAAAAAAAAAAAAAAAAA",
"AAAAAAAAAAAAAAAAAAAAAAAAAAAAAAAAAAAAAAAAAAAAAAAAAAAAAAAAAAAAAAAAAAAAAAAAAAAAAAAAAAAAAAAAAAAAAAAAAAAAAAAAAAAAAAAA",
"AAAAAAAAAAAAAAAAAAAAAAAAAAAAAAAAAAAAAAAAAAAAAAAAAAAAAAAAAAAAAAAAAAAAAAAAAAAAAAAAAAAAAAAAAAAAAAAAAAAAAAAAAAAAAAAA",
"AAAAAAAAAAAAAAAAAAAAAAAAAAAAAAAAAAAAAAAAAAAAAAAAAAAAAAAAAAAAAAAAAAAAAAAAAAAAAAAAAAAAAAAAAAAAAAAAAAAAAAAAAAAAAAAA",
"AAAAAAAAAAAAAAAAAAAAAAAAAAAAAAAAAAAAAAAAAAAAAAAAAAAAAAAAAAAAAAAAAAAAAAAAAAAAAAAAAAAAAAAAAAAAAAAAAAAAAAAAAAAAAAAA",
"AAAAAAAAAAAAAAAAAAAAAAAAAAAAAAAAAAAAAAAAAAAAAAAAAAAAAAAAAAAAAAAAAAAAAAAAAAAAAAAAAAAAAAAAAAAAAAAAAAAAAAAAAAAAAAAA",
"AAAAAAAAAAAAAAAAAAAAAAAAAAAAAAAAAAAAAAAAAAAAAAAAAAAAAAAAAAAAAAAAAAAAAAAAAAAAAAAAAAAAAAAAAAAAAAAAAAAAAAAAAAAAAAAA",
"AAAAAAAAAAAAAAAAAAAAAAAAAAAAAAAAAAAAAAAAAAAAAAAAAAAAAAAAAAAAAAAAAAAAAAAAAAAAAAAAAAAAAAAAAAAAAAAAAAAAAAAAAAAAAAAA",
"AAAAAAAAAAAAAAAAAAAAAAAAAAAAAAAAAAAAAAAAAAAAAAAAAAAAAAAAAAAAAAAAAAAAAAAAAAAAAAAAAAAAAAAAAAAAAAAAAAAAAAAAAAAAAAAA",
"AAAAAAAAAAAAAAAAAAAAAAAAAAAAAAAAAAAAAAAAAAAAAAAAAACECKKLPIJCAAAAAAAAAABBKHELEKBHFAAAAAAAGBOJPEAAAAAAAAAAAAAAAAAA",
"AAAAAAAAAAAAAAAAAAAAAAAAAAAAAAAAAAAAAAAAAAAAAAAAMCEMNIIFGKLKABAAAAAAAABIGMHGNGIMDHAADCDFKJOMAGAAAAAAAAAAAAAAAAAA",
"AAAAAAAAAAAAAAAAAAAAAAAAAAAAAAAAAAAAAAAAAAAAAAAABHOMJCAACFOMKEAAAAAAJACMGIAAAAJIILLAMFOMOMOMAGAAAAAAAAAAAAAAAAAA",
"AAAAAAAAAAAAAAAAAAAAAAAAAAAAAAAAAAAAAAAAAAAAAAAAOHOMHAAAJDOMLFAAAAAAHAGMEJAAAAIJOMCCFANAGEOMAGAAAAAAAAAAAAAAAAAA",
"AAAAAAAAAAAAAAAAAAAAAAAAAAAAAAAAAAAAAAAAAAAAAAAAIIMMAAAACDOMJGAAAAAAAAFIOMFHHHOMOMMCAAAABEOMAGAAAAAAAAAAAAAAAAAA",
"AAAAAAAAAAAAAAAAAAAAAAAAAAAAAAAAAAAAAAAAAAAAAAAANHOMABAANDOMGFAAAAAAAAMBIIPLDJAIOMGBAAAABEOMAGAAAAAAAAAAAAAAAAAA",
"AAAAAAAAAAAAAAAAAAAAAAAAAAAAAAAAAAAAAAAAAAAAAAAALGOMEDAAOFOMCEAAAAAAAAPDJDBAAAIJIKAAAAAABEOMAGAAAAAAAAAAAAAAAAAA",
"AAAAAAAAAAAAAAAAAAAAAAAAAAAAAAAAAAAAAAAAAAAAAAAAHCKMGJEFNKPKLAMDKLMHAADIEMKEDGOMFGAAAAAABEOMAGAAAAAAAAAAAAAAAAAA",
"AAAAAAAAAAAAAAAAAAAAAAAAAAAAAAAAAAAAAAAAAAAAAAAAAAJFPLOMBLNDAAPDOMOHAAECAKOMNLIHDAAAAAAABEOMAGAAAAAAAAAAAAAAAAAA",
"AAAAAAAAAAAAAAAAAAAAAAAAAAAAAAAAAAAAAAAAAAAAAAAAAAAAJAACBAAAAAAAAAAAAAAABAOBLAAAAAAAAAAAAAAAAAAAAAAAAAAAAAAAAAAA",
"AAAAAAAAAAAAAAAAAAAAAAAAAAAAAAAAAAAAAAAAAAAAAAAAAAAAAAAAAAAAAAAAAAAAAAAAAAAAAAAAAAAAAAAAAAAAAAAAAAAAAAAAAAAAAAAA",
"AAAAAAAAAAAAAAAAAAAAAAAAAAAAAAAAAAAAAAAAAAAAAAAAAAAAAAAAAAAAAAAAAAAAAAAAAAAAAAAAAAAAAAAAAAAAAAAAAAAAAAAAAAAAAAAA",
"AAAAAAAAAAAAAAAAAAAAAAAAAAAAAAAAAAAAAAAAAAAAAAAAAAAAAAAAAAAAAAAAAAAAAAAAAAAAAAAAAAAAAAAAAAAAAAAAAAAAAAAAAAAAAAAA",
"AAAAAAAAAAAAAAAAAAAAAAAAAAAAAAAAAAAAAAAAAAAAAAAAAAAAAAAAAAAAAAAAAAAAAAAAAAAAAAAAAAAAAAAAAAAAAAAAAAAAAAAAAAAAAAAA",
"AAAAAAAAAAAAAAAAAAAAAAAAAAAAAAAAAAAAAAAAAAAAAAAAAAAAAAAAAAAAAAAAAAAAAAAAAAAAAAAAAAAAAAAAAAAAAAAAAAAAAAAAAAAAAAAA",
"AAAAAAAAAAAAAAAAAAAAAAAAAAAAAAAAAAAAAAAAAAAAAAAAAAAAAAAAAAAAAAAAAAAAAAAAAAAAAAAAAAAAAAAAAAAAAAAAAAAAAAAAAAAAAAAA",
"AAAAAAAAAAAAAAAAAAAAAAAAAAAAAAAAAAAAAAAAAAAAAAAAAAAAAAAAAAAAAAAAAAAAAAAAAAAAAAAAAAAAAAAAAAAAAAAAAAAAAAAAAAAAAAAA",
"AAAAAAAAAAAAAAAAAAAAAAAAAAAAAAAAAAAAAAAAAAAAAAAAAAAAAAAAAAAAAAAAAAAAAAAAAAAAAAAAAAAAAAAAAAAAAAAAAAAAAAAAAAAAAAAA",
"AAAAAAAAAAAAAAAAAAAAAAAAAAAAAAAAAAAAAAAAAAAAAAAAAAAAAAAAAAAAAAAAAAAAAAAAAAAAAAAAAAAAAAAAAAAAAAAAAAAAAAAAAAAAAAAA",
"AAAAAAAAAAAAAAAAAAAAAAAAAAAAAAAAAAAAAAAAAAAAAAAAAAAAAAAAAAAAAAAAAAAAAAAAAAAAAAAAAAAAAAAAAAAAAAAAAAAAAAAAAAAAAAAA",
"AAAAAAAAAAAAAAAAAAAAAAAAAAAAAAAAAAAAAAAAAAAAAAAAAAAAAAAAAAAAAAAAAAAAAAAAAAAAAAAAAAAAAAAAAAAAAAAAAAAAAAAAAAAAAAAA",
"AAAAAAAAAAAAAAAAAAAAAAAAAAAAAAAAAAAAAAAAAAAAAAAAAAAAAAAAAAAAAAAAAAAAAAAAAAAAAAAAAAAAAAAAAAAAAAAAAAAAAAAAAAAAAAAA",
"AAAAAAAAAAAAAAAAAAAAAAAAAAAAAAAAAAAAAAAAAAAAAAAAAAAAAAAAAAAAAAAAAAAAAAAAAAAAAAAAAAAAAAAAAAAAAAAAAAAAAAAAAAAAAAAA",
"AAAAAAAAAAAAAAAAAAAAAAAAAAAAAAAAAAAAAAAAAAAAAAAAAAAAAAAAAAAAAAAAAAAAAAAAAAAAAAAAAAAAAAAAAAAAAAAAAAAAAAAAAAAAAAAA",
"AAAAAAAAAAAAAAAAAAAAAAAAAAAAAAAAAAAAAAAAAAAAAAAAAAAAAAAAAAAAAAAAAAAAAAAAAAAAAAAAAAAAAAAAAAAAAAAAAAAAAAAAAAAAAAAA",
"AAAAAAAAAAAAAAAAAAAAAAAAAAAAAAAAAAAAAAAAAAAAAAAAAAAAAAAAAAAAAAAAAAAAAAAAAAAAAAAAAAAAAAAAAAAAAAAAAAAAAAAAAAAAAAAA",
"AAAAAAAAAAAAAAAAAAAAAAAAAAAAAAAAAAAAAAAAAAAAAAAAAAAAAAAAAAAAAAAAAAAAAAAAAAAAAAAAAAAAAAAAAAAAAAAAAAAAAAAAAAAAAAAA",
"AAAAAAAAAAAAAAAAAAAAAAAAAAAAAAAAAAAAAAAAAAAAAAAAAAAAAAAAAAAAAAAAAAAAAAAAAAAAAAAAAAAAAAAAAAAAAAAAAAAAAAAAAAAAAAAA",
"AAAAAAAAAAAAAAAAAAAAAAAAAAAAAAAAAAAAAAAAAAAAAAAAAAAAAAAAAAAAAAAAAAAAAAAAAAAAAAAAAAAAAAAAAAAAAAAAAAAAAAAAAAAAAAAA",
"AAAAAAAAAAAAAAAAAAAAAAAAAAAAAAAAAAAAAAAAAAAAAAAAAAAAAAAAAAAAAAAAAAAAAAAAAAAAAAAAAAAAAAAAAAAAAAAAAAAAAAAAAAAAAAAA",
"AAAAAAAAAAAAAAAAAAAAAAAAAAAAAAAAAAAAAAAAAAAAAAAAAAAAAAAAAAAAAAAAAAAAAAAAAAAAAAAAAAAAAAAAAAAAAAAAAAAAAAAAAAAAAAAA",
"AAAAAAAAAAAAAAAAAAAAAAAAAAAAAAAAAAAAAAAAAAAAAAAAAAAAAAAAAAAAAAAAAAAAAAAAAAAAAAAAAAAAAAAAAAAAAAAAAAAAAAAAAAAAAAAA"};
