/* XPM */
static char * matrix_xpm[] = {
"16 16 2 1",
" 	c None",
".	c #3D3C3C",
"                ",
"    .      .    ",
"   .        .   ",
"  .          .  ",
"  . ...  ... .  ",
"  . . .  . . .  ",
"  . ...  ... .  ",
"  .          .  ",
"  .          .  ",
"  . ...  ... .  ",
"  . . .  . . .  ",
"  . ...  ... .  ",
"  .          .  ",
"   .        .   ",
"    .      .    ",
"                "};
