/* XPM */
static char * palette_xpm[] = {
"16 16 8 1",
" 	c None",
".	c #D3D3D3",
"+	c #B0B2B2",
"@	c #E5725E",
"#	c #8FD68F",
"$	c #E07562",
"%	c #DD7664",
"&	c #4AB0C4",
"                ",
"                ",
"     ..++..     ",
"   .+@@####+.   ",
"  +@@@@######+  ",
" +@@@@$#######+ ",
".@@@%@@@#######.",
"+@@@@@@@#######+",
"+@@@@@@@&&&&&&&+",
".@@@@@@&&&&&&&&.",
" +@@@@&&&&&&&&+ ",
"  +@@&&&&&&&&+  ",
"   .+&&&&&&+.   ",
"     ..++..     ",
"                ",
"                "};
