/* XPM */
static char * play_xpm[] = {
"24 24 75 1",
" 	c None",
".	c #A8ACA8",
"+	c #686868",
"@	c #B8BCB8",
"#	c #E0E4E0",
"$	c #404440",
"%	c #485068",
"&	c #505058",
"*	c #808480",
"=	c #D0D4D0",
"-	c #303030",
";	c #7880A8",
">	c #8084A8",
",	c #606070",
"'	c #505458",
")	c #A8ACB0",
"!	c #D8DCD8",
"~	c #8084B0",
"{	c #7078A8",
"]	c #8890B8",
"^	c #888CB0",
"/	c #505060",
"(	c #707078",
"_	c #B8B8B8",
":	c #8088B0",
"<	c #7880B0",
"[	c #8890C0",
"}	c #A0A4D0",
"|	c #707890",
"1	c #585860",
"2	c #C8C8C8",
"3	c #8088B8",
"4	c #98A0C8",
"5	c #8088A8",
"6	c #586078",
"7	c #989898",
"8	c #9094C0",
"9	c #8894C0",
"0	c #9098C8",
"a	c #808CB8",
"b	c #687090",
"c	c #404858",
"d	c #585C58",
"e	c #D0D0D0",
"f	c #98A0D0",
"g	c #909CC8",
"h	c #606490",
"i	c #303440",
"j	c #A0A4A0",
"k	c #687098",
"l	c #505070",
"m	c #484C50",
"n	c #888C88",
"o	c #E0E0E0",
"p	c #989CD0",
"q	c #989CC8",
"r	c #585C78",
"s	c #484C60",
"t	c #707478",
"u	c #7078A0",
"v	c #404458",
"w	c #606468",
"x	c #A8A8A8",
"y	c #D8D8D8",
"z	c #888CB8",
"A	c #383C40",
"B	c #909090",
"C	c #686C90",
"D	c #404450",
"E	c #C8CCC8",
"F	c #505050",
"G	c #505870",
"H	c #606060",
"I	c #B0B0B0",
"J	c #909490",
"                        ",
"                        ",
"                        ",
"                        ",
"                        ",
"       .+@#             ",
"       $%&*=#           ",
"       -;>,')!          ",
"       -~{]^/(_!        ",
"       -:<<[}|1*2       ",
"       -:333[45617#     ",
"       -3889900abcde    ",
"       -]f44f4g3{hij    ",
"       -]f}}}f3klmno    ",
"       -]gpq0:rst@#     ",
"       -]98[uvwxy       ",
"       -za~rABe         ",
"       -:CD+E#          ",
"       FGHI#            ",
"       @Je              ",
"                        ",
"                        ",
"                        ",
"                        "};
