/* XPM */
static char * split_vert_xpm[] = {
"16 16 14 1",
" 	c None",
".	c #7F7F7F",
"+	c #4D4D4D",
"@	c #505050",
"#	c #8A8A8A",
"$	c #777777",
"%	c #B9B9B9",
"&	c #3E3E3E",
"*	c #A7A7A7",
"=	c #BEBEBE",
"-	c #424242",
";	c #434343",
">	c #4E4E4E",
",	c #BFBFBF",
".+++++++++++++@#",
"+$     %&     *+",
"+      =-      +",
"+      =-      +",
"+      =-      +",
"+      =-      +",
"+      =-      +",
"+      =-      +",
"+      =;      +",
"+      =-      +",
"+      =-      +",
"+      =-      +",
"+      =-      +",
"+      =-      +",
">      ,-      +",
"#++++++++++++++#"};
