/* XPM */
static char * split_none_xpm[] = {
"16 16 8 1",
" 	c None",
".	c #7F7F7F",
"+	c #4D4D4D",
"@	c #505050",
"#	c #8A8A8A",
"$	c #777777",
"%	c #A7A7A7",
"&	c #4E4E4E",
".+++++++++++++@#",
"+$            %+",
"+              +",
"+              +",
"+              +",
"+              +",
"+              +",
"+              +",
"+              +",
"+              +",
"+              +",
"+              +",
"+              +",
"+              +",
"&              +",
"#++++++++++++++#"};
