/* XPM */
static char * split_horz_xpm[] = {
"16 16 15 1",
" 	c None",
".	c #7F7F7F",
"+	c #4D4D4D",
"@	c #505050",
"#	c #8A8A8A",
"$	c #777777",
"%	c #A7A7A7",
"&	c #BABABA",
"*	c #C4C4C4",
"=	c #CCCCCC",
"-	c #3F3F3F",
";	c #424242",
">	c #434343",
",	c #494949",
"'	c #4E4E4E",
".+++++++++++++@#",
"+$            %+",
"+              +",
"+              +",
"+              +",
"+              +",
"+              +",
"+&************=+",
"+-;;;;;;>;;;;;,+",
"+              +",
"+              +",
"+              +",
"+              +",
"+              +",
"'              +",
"#++++++++++++++#"};
