/* XPM */
static char * step_backward_xpm[] = {
"24 24 91 1",
" 	c None",
".	c #D0D0D0",
"+	c #909490",
"@	c #B8BCB8",
"#	c #585C58",
"$	c #303030",
"%	c #E0E4E0",
"&	c #B0B0B0",
"*	c #606060",
"=	c #505870",
"-	c #505050",
";	c #202838",
">	c #6B729B",
",	c #283048",
"'	c #C8CCC8",
")	c #686868",
"!	c #404450",
"~	c #686C90",
"{	c #8088B0",
"]	c #282C38",
"^	c #797CA8",
"/	c #303450",
"(	c #909090",
"_	c #383C40",
":	c #585C78",
"<	c #8084B0",
"[	c #808CB8",
"}	c #888CB8",
"|	c #283040",
"1	c #8083A8",
"2	c #303850",
"3	c #D8D8D8",
"4	c #A8A8A8",
"5	c #606468",
"6	c #404458",
"7	c #7078A0",
"8	c #8890C0",
"9	c #9094C0",
"0	c #8894C0",
"a	c #8890B8",
"b	c #303040",
"c	c #868DAF",
"d	c #383C50",
"e	c #707478",
"f	c #484C60",
"g	c #9098C8",
"h	c #989CC8",
"i	c #989CD0",
"j	c #909CC8",
"k	c #303840",
"l	c #8D94B6",
"m	c #E0E0E0",
"n	c #888C88",
"o	c #484C50",
"p	c #505070",
"q	c #687098",
"r	c #8088B8",
"s	c #98A0D0",
"t	c #A0A4D0",
"u	c #383C48",
"v	c #A0A4A0",
"w	c #303440",
"x	c #606490",
"y	c #7078A8",
"z	c #98A0C8",
"A	c #384050",
"B	c #404858",
"C	c #687090",
"D	c #989898",
"E	c #585860",
"F	c #586078",
"G	c #8088A8",
"H	c #C8C8C8",
"I	c #808480",
"J	c #707890",
"K	c #7880B0",
"L	c #D8DCD8",
"M	c #B8B8B8",
"N	c #707078",
"O	c #505060",
"P	c #888CB0",
"Q	c #A8ACB0",
"R	c #505458",
"S	c #606070",
"T	c #8084A8",
"U	c #7880A8",
"V	c #D0D4D0",
"W	c #505058",
"X	c #485068",
"Y	c #404440",
"Z	c #A8ACA8",
"                        ",
"                        ",
"                        ",
"                        ",
"            .+@  #$$$#  ",
"          %&*=-  ;>>>,  ",
"        %')!~{$  ]^^^/  ",
"       .(_:<[}$  |1112  ",
"     34567890a$  bcccd  ",
"   %@ef:{ghija$  klll6  ",
"  mnopqrstttsa$  u999u  ",
"  vwxyrjzszzsa$  usssA  ",
"  .#BC[gg0099r$  u999u  ",
"   %DEFGz8rrr{$  ulllk  ",
"     HIEJt8KK{$  dcccb  ",
"      LMNOPay<$  2111|  ",
"        LQRSTU$  /^^^]  ",
"         %VIWXY  ,>>>;  ",
"           %@)Z  #$$$#  ",
"                        ",
"                        ",
"                        ",
"                        ",
"                        "};
