/* XPM */
static char * step_forward_xpm[] = {
"24 24 91 1",
" 	c None",
".	c #585C58",
"+	c #303030",
"@	c #A8ACA8",
"#	c #686868",
"$	c #B8BCB8",
"%	c #E0E4E0",
"&	c #202838",
"*	c #6B729B",
"=	c #283048",
"-	c #404440",
";	c #485068",
">	c #505058",
",	c #808480",
"'	c #D0D4D0",
")	c #282C38",
"!	c #797CA8",
"~	c #303450",
"{	c #7880A8",
"]	c #8084A8",
"^	c #606070",
"/	c #505458",
"(	c #A8ACB0",
"_	c #D8DCD8",
":	c #283040",
"<	c #8083A8",
"[	c #303850",
"}	c #8084B0",
"|	c #7078A8",
"1	c #8890B8",
"2	c #888CB0",
"3	c #505060",
"4	c #707078",
"5	c #B8B8B8",
"6	c #303040",
"7	c #868DAF",
"8	c #383C50",
"9	c #8088B0",
"0	c #7880B0",
"a	c #8890C0",
"b	c #A0A4D0",
"c	c #707890",
"d	c #585860",
"e	c #C8C8C8",
"f	c #303840",
"g	c #8D94B6",
"h	c #404458",
"i	c #8088B8",
"j	c #98A0C8",
"k	c #8088A8",
"l	c #586078",
"m	c #989898",
"n	c #383C48",
"o	c #9094C0",
"p	c #8894C0",
"q	c #9098C8",
"r	c #808CB8",
"s	c #687090",
"t	c #404858",
"u	c #D0D0D0",
"v	c #98A0D0",
"w	c #384050",
"x	c #909CC8",
"y	c #606490",
"z	c #303440",
"A	c #A0A4A0",
"B	c #687098",
"C	c #505070",
"D	c #484C50",
"E	c #888C88",
"F	c #E0E0E0",
"G	c #989CD0",
"H	c #989CC8",
"I	c #585C78",
"J	c #484C60",
"K	c #707478",
"L	c #7078A0",
"M	c #606468",
"N	c #A8A8A8",
"O	c #D8D8D8",
"P	c #888CB8",
"Q	c #383C40",
"R	c #909090",
"S	c #686C90",
"T	c #404450",
"U	c #C8CCC8",
"V	c #505050",
"W	c #505870",
"X	c #606060",
"Y	c #B0B0B0",
"Z	c #909490",
"                        ",
"                        ",
"                        ",
"                        ",
"                        ",
"  .+++.  @#$%           ",
"  &***=  -;>,'%         ",
"  )!!!~  +{]^/(_        ",
"  :<<<[  +}|12345_      ",
"  67778  +900abcd,e     ",
"  fgggh  +9iiiajkldm%   ",
"  nooon  +iooppqqrst.u  ",
"  nvvvw  +1vjjvjxi|yzA  ",
"  nooon  +1vbbbviBCDEF  ",
"  ngggf  +1xGHq9IJK$%   ",
"  87776  +1poaLhMNO     ",
"  [<<<:  +Pr}IQRu       ",
"  ~!!!)  +9ST#U%        ",
"  =***&  VWXY%          ",
"  .+++.  $Zu            ",
"                        ",
"                        ",
"                        ",
"                        "};
