/* XPM */
static char * tb_surface_xpm[] = {
"16 16 5 1",
" 	c None",
".	c #FFFFFF",
"+	c #383F38",
"@	c #657765",
"#	c #869E86",
"     ..         ",
"    ...++       ",
"   ..++@@++     ",
"   ++@@@@@@++   ",
" ++@@@@@@@@@@++ ",
" +#++@@@@@@++#+ ",
" +###++@@++###+ ",
" +######+#####+ ",
" +#####+######+ ",
" +######+#####+ ",
" +#####+######+ ",
" +######+#####+ ",
" +#####+######+ ",
" +  ####+###  + ",
"      #+##      ",
"        +       "};
