/* XPM */
static char * tools_xpm[] = {
"16 16 65 1",
" 	c None",
".	c #989898",
"+	c #888888",
"@	c #505050",
"#	c #5A5A5A",
"$	c #7C7C7C",
"%	c #DDDDDD",
"&	c #828282",
"*	c #9B9B9B",
"=	c #9D9D9D",
"-	c #B5B5B5",
";	c #6B6B6B",
">	c #8D8D8D",
",	c #C8C8C8",
"'	c #BDBDBD",
")	c #AAAAAA",
"!	c #777777",
"~	c #B3B3B3",
"{	c #A9A9A9",
"]	c #9F9F9F",
"^	c #B7B7B7",
"/	c #D8D8D8",
"(	c #E0E0E0",
"_	c #A8A8A8",
":	c #ABABAB",
"<	c #D3D3D3",
"[	c #363636",
"}	c #929292",
"|	c #518621",
"1	c #588C21",
"2	c #676767",
"3	c #979797",
"4	c #4F980F",
"5	c #80F700",
"6	c #6CB100",
"7	c #477E00",
"8	c #A7A7A7",
"9	c #58832E",
"0	c #74CE00",
"a	c #7BD100",
"b	c #76B900",
"c	c #B2B2B2",
"d	c #414141",
"e	c #5DB400",
"f	c #75BF00",
"g	c #70B700",
"h	c #74BE00",
"i	c #3B6A00",
"j	c #535353",
"k	c #6F6F6F",
"l	c #275300",
"m	c #6CBF00",
"n	c #73C400",
"o	c #70BF00",
"p	c #315700",
"q	c #797979",
"r	c #326600",
"s	c #6ECC00",
"t	c #70C700",
"u	c #6FCE00",
"v	c #5DA600",
"w	c #B8B8B8",
"x	c #408100",
"y	c #6DD400",
"z	c #69B900",
"                ",
"  .+       @#   ",
"  $%&     #*    ",
"   =-     #;  # ",
"    >,   #')!~# ",
"     {] #-^/(#  ",
"     ,_#_:<##   ",
"      [}|12     ",
"     #34567     ",
"   ##-890ab7    ",
"  #-'c^defghi   ",
" j*k:^# lmnnop  ",
" #  q#   rstuv  ",
"    w#    xyz7  ",
"   ##      77   ",
"                "};
