/* XPM */
static char * arrow_xpm[] = {
"16 16 4 1",
" 	c None",
".	c #E9E9E9",
"+	c #3A3A3A",
"@	c #1E1E1E",
"     ..         ",
"     .+.        ",
"     .+@.       ",
"     .+@@.      ",
"     .++@@.     ",
"     .++@@@.    ",
"     .++@@@@.   ",
"     .+++@@@@.  ",
"     .+++@@@@@. ",
"     .+++@@@@@@.",
"     .++++@@... ",
"     .++++@@.   ",
"     .++..@@.   ",
"     .+.  @@@.  ",
"     ..   .@@.  ",
"          .@.   "};
