/* XPM */
static char * aview_xpm[] = {
"16 16 39 1",
" 	c None",
".	c #A5A5A5",
"+	c #3A3A3A",
"@	c #111111",
"#	c #010101",
"$	c #575757",
"%	c #DDDDDD",
"&	c #9C9C9C",
"*	c #D5D5D5",
"=	c #E8E8E8",
"-	c #C6C6C6",
";	c #272727",
">	c #636363",
",	c #8C8C8C",
"'	c #E2E2E2",
")	c #9E9E9E",
"!	c #747474",
"~	c #666666",
"{	c #3C3C3C",
"]	c #181818",
"^	c #B7B7B7",
"/	c #0E0E0E",
"(	c #4C4C4C",
"_	c #919191",
":	c #A7A7A7",
"<	c #686868",
"[	c #171717",
"}	c #7D7D7D",
"|	c #8B8B8B",
"1	c #000000",
"2	c #C3C3C3",
"3	c #454545",
"4	c #191919",
"5	c #767676",
"6	c #1F1F1F",
"7	c #0A0A0A",
"8	c #070707",
"9	c #A4A4A4",
"0	c #DCDCDC",
"                ",
"                ",
"                ",
"                ",
"     .+@#@$%    ",
"     &.*=-;>    ",
"          ,;    ",
"      ')!~{]    ",
"     ^/(_:<[    ",
"     ]}   |[    ",
"    %12   3[    ",
"     4~  56[    ",
"     ^@78>9[    ",
"       0        ",
"                ",
"                "};
