/* XPM */
static char * axes_xpm[] = {
"16 16 5 1",
" 	c None",
".	c #2B2B2B",
"+	c #282727",
"@	c #292828",
"#	c #2E2D2D",
"     .          ",
"     .          ",
"    ...         ",
"    ...         ",
"     .          ",
"     +          ",
"     +          ",
"     +          ",
"     +          ",
"     @      ..  ",
"     @@++++#....",
"    @       ..  ",
"  ..            ",
" ...            ",
" ..             ",
".               "};
