/* XPM */
static char * box_xpm[] = {
"18 18 178 2",
"  	c None",
". 	c #DF9B86",
"+ 	c #FD6332",
"@ 	c #E0572F",
"# 	c #D44D26",
"$ 	c #F76337",
"% 	c #FD6130",
"& 	c #FC5F2F",
"* 	c #E6552A",
"= 	c #933C22",
"- 	c #76CCEA",
"; 	c #6BBCD8",
"> 	c #5A99B0",
", 	c #78CFED",
"' 	c #72C9E7",
") 	c #61A9C2",
"! 	c #AC6C58",
"~ 	c #FF6633",
"{ 	c #FD5F2F",
"] 	c #D84F27",
"^ 	c #8F3C23",
"/ 	c #7BD7F6",
"( 	c #80E1FF",
"_ 	c #77D1F0",
": 	c #61ABC5",
"< 	c #427080",
"[ 	c #78CEED",
"} 	c #81E2FF",
"| 	c #7BD8F9",
"1 	c #6ABAD6",
"2 	c #4A8295",
"3 	c #736561",
"4 	c #E8552A",
"5 	c #BD4522",
"6 	c #8F5443",
"7 	c #FC5E2F",
"8 	c #877D7C",
"9 	c #80C9E2",
"0 	c #71C7E6",
"a 	c #5DA3BC",
"b 	c #3A6675",
"c 	c #72C8E6",
"d 	c #7BD8F8",
"e 	c #74CCEC",
"f 	c #64AFCA",
"g 	c #487D8F",
"h 	c #BEB1AD",
"i 	c #D5A99C",
"j 	c #C1988C",
"k 	c #A07F75",
"l 	c #F96031",
"m 	c #FE6030",
"n 	c #DD5128",
"o 	c #90351A",
"p 	c #5E757D",
"q 	c #62ABC6",
"r 	c #4D879C",
"s 	c #2F525E",
"t 	c #60A7C0",
"u 	c #69B9D5",
"v 	c #63AEC9",
"w 	c #5290A7",
"x 	c #355E6C",
"y 	c #756E6D",
"z 	c #877671",
"A 	c #9B9492",
"B 	c #B19B95",
"C 	c #EE572B",
"D 	c #FB5E2F",
"E 	c #EF572B",
"F 	c #C64824",
"G 	c #7D2E17",
"H 	c #4F707D",
"I 	c #467B8E",
"J 	c #315764",
"K 	c #324D56",
"L 	c #4A8094",
"M 	c #467A8D",
"N 	c #355D6B",
"O 	c #2E4A54",
"P 	c #AFAFAF",
"Q 	c #BB4826",
"R 	c #CF4B25",
"S 	c #BF4623",
"T 	c #94361B",
"U 	c #5E2514",
"V 	c #566A71",
"W 	c #5E6F76",
"X 	c #78868B",
"Y 	c #4B5C62",
"Z 	c #B0B0B0",
"` 	c #82341E",
" .	c #712C18",
"..	c #5D2616",
"+.	c #A6A6A6",
"@.	c #BEBEBE",
"#.	c #B6B6B6",
"$.	c #77CFEE",
"%.	c #74C5E2",
"&.	c #5DA1B9",
"*.	c #B49288",
"=.	c #D09787",
"-.	c #A6614D",
";.	c #7ACFEC",
">.	c #79D4F5",
",.	c #65B2CD",
"'.	c #447688",
").	c #F66337",
"!.	c #FE6331",
"~.	c #F85C2E",
"{.	c #C74A25",
"].	c #FE6432",
"^.	c #FE6130",
"/.	c #E15229",
"(.	c #925D4F",
"_.	c #80BBD0",
":.	c #5FA8C1",
"<.	c #548090",
"[.	c #B5C8CF",
"}.	c #79CCE9",
"|.	c #7DC3DC",
"1.	c #649EB3",
"2.	c #D06645",
"3.	c #D34D26",
"4.	c #83321B",
"5.	c #F56032",
"6.	c #FF6130",
"7.	c #E45329",
"8.	c #9F3A1D",
"9.	c #717273",
"0.	c #70B0C7",
"a.	c #558DA1",
"b.	c #3A5D69",
"c.	c #7AC8E3",
"d.	c #7AD6F6",
"e.	c #67B5D1",
"f.	c #4E7887",
"g.	c #9B6859",
"h.	c #EA562A",
"i.	c #BC4522",
"j.	c #6F2814",
"k.	c #E2552C",
"l.	c #F95C2E",
"m.	c #C94924",
"n.	c #8D3D25",
"o.	c #B8B8B8",
"p.	c #C2C3C3",
"q.	c #CBCBCB",
"r.	c #B7C6CB",
"s.	c #75CEEE",
"t.	c #7CDAFA",
"u.	c #75CDEC",
"v.	c #63ADC8",
"w.	c #437688",
"x.	c #844837",
"y.	c #BA4422",
"z.	c #8A3219",
"A.	c #5C2616",
"B.	c #B24728",
"C.	c #BC4422",
"D.	c #5F2413",
"E.	c #65B1CB",
"F.	c #6CBFDC",
"G.	c #65B1CC",
"H.	c #5391A8",
"I.	c #345C6A",
"J.	c #65382C",
"K.	c #6E2A16",
"L.	c #5C2717",
"M.	c #7D341E",
"N.	c #712D1A",
"O.	c #5E2717",
"P.	c #508496",
"Q.	c #4F8BA2",
"R.	c #4F8BA1",
"S.	c #3E6E7E",
"T.	c #2E4B55",
"U.	c #4D8BA0",
"        . + @ #                     ",
"        $ % & * =           - ; >   ",
"  , ' ) ! ~ { ] ^         / ( _ : < ",
"[ } | 1 2 3 4 5 6 . + 7 # 8 9 0 a b ",
"c d e f g h i j k l ~ m n o p q r s ",
"t u v w x y z A B C D E F G H I J K ",
"  L M N O   P     Q R S T U V W     ",
"    X Y     Z       `  ...    +.    ",
"    @.      Z         #.      +.    ",
"    @.      Z         #.      +.    ",
"    @.    $.%.&.      #.      *.    ",
"    =.-.;.} >.,.'.    #.  ).!.~.{.  ",
"  ].^./.(._.' :.<.[.}.|.1.2.~ 7 3.4.",
"5.~ 6.7.8.9.0.a.b.c.} d.e.f.g.h.i.j.",
"k.l.E m.n.o.p.q.r.s.t.u.v.w.x.y.z.A.",
"B.F C.T D.        E.F.G.H.I.J.K.L.  ",
"  M.N.O.          P.Q.R.S.T.        ",
"                    L M U.          "};
