/* XPM */
static char * bview_xpm[] = {
"16 16 39 1",
" 	c None",
".	c #C0C0C0",
"+	c #B6B6B6",
"@	c #636363",
"#	c #4B4B4B",
"$	c #A1A1A1",
"%	c #262626",
"&	c #030303",
"*	c #222222",
"=	c #A0A0A0",
"-	c #0E0E0E",
";	c #454545",
">	c #D2D2D2",
",	c #E2E2E2",
"'	c #9A9A9A",
")	c #070707",
"!	c #B9B9B9",
"~	c #1A1A1A",
"{	c #696969",
"]	c #3E3E3E",
"^	c #4A4A4A",
"/	c #AFAFAF",
"(	c #0B0B0B",
"_	c #C4C4C4",
":	c #000000",
"<	c #B1B1B1",
"[	c #080808",
"}	c #242424",
"|	c #757575",
"1	c #353535",
"2	c #0A0A0A",
"3	c #BFBFBF",
"4	c #0D0D0D",
"5	c #ABABAB",
"6	c #5D5D5D",
"7	c #818181",
"8	c #131313",
"9	c #171717",
"0	c #DADADA",
"    .+          ",
"    @#          ",
"    @#          ",
"    @#          ",
"    @#$%&*=     ",
"    @-;>,')!    ",
"    @~    {]    ",
"    @^    /(    ",
"    @#    _:    ",
"    @#    <[    ",
"    @}    |1    ",
"    @2{  345    ",
"    @6789[7     ",
"        0       ",
"                ",
"                "};
