/* XPM */
static char * canvas_create_xpm[] = {
"16 16 3 1",
" 	c None",
".	c #4D4D4D",
"+	c #247A3A",
"                ",
"  ............  ",
" .............. ",
" ..          .. ",
" ..    ++    .. ",
" ..    ++    .. ",
" ..    ++    .. ",
" .. ++++++++ .. ",
" .. ++++++++ .. ",
" ..    ++    .. ",
" ..    ++    .. ",
" ..    ++    .. ",
" ..          .. ",
" .............. ",
"  ............  ",
"                "};
