/* XPM */
static char * canvas_delete_xpm[] = {
"16 16 3 1",
" 	c None",
".	c #4D4D4D",
"+	c #E82720",
"                ",
"  ............  ",
" .............. ",
" ..          .. ",
" ..          .. ",
" ..          .. ",
" ..          .. ",
" .. ++++++++ .. ",
" .. ++++++++ .. ",
" ..          .. ",
" ..          .. ",
" ..          .. ",
" ..          .. ",
" .............. ",
"  ............  ",
"                "};
