/* XPM */
static char * cross_xpm[] = {
"16 16 4 1",
" 	c None",
".	c #FF472B",
"+	c #FF4343",
"@	c #FF4444",
"                ",
"                ",
"                ",
"  ...      ...  ",
"   ....   ....  ",
"    .... ....   ",
"     .......    ",
"      .....     ",
"      .....     ",
"     .......    ",
"    ...   ..    ",
"    ..     ..   ",
"   ..       .+  ",
"   .         @  ",
"                ",
"                "};
