/* XPM */
static char * cview_xpm[] = {
"16 16 33 1",
" 	c None",
".	c #969696",
"+	c #262626",
"@	c #020202",
"#	c #090909",
"$	c #2D2D2D",
"%	c #E6E6E6",
"&	c #8B8B8B",
"*	c #0A0A0A",
"=	c #999999",
"-	c #E3E3E3",
";	c #E4E4E4",
">	c #B8B8B8",
",	c #101010",
"'	c #818181",
")	c #CDCDCD",
"!	c #000000",
"~	c #BBBBBB",
"{	c #E5E5E5",
"]	c #C8C8C8",
"^	c #D2D2D2",
"/	c #080808",
"(	c #959595",
"_	c #717171",
":	c #171717",
"<	c #BEBEBE",
"[	c #E1E1E1",
"}	c #727272",
"|	c #0F0F0F",
"1	c #0C0C0C",
"2	c #D1D1D1",
"3	c #DBDBDB",
"4	c #E0E0E0",
"                ",
"                ",
"                ",
"                ",
"      .+@#$%    ",
"     &*=-;>     ",
"     ,'         ",
"    )!)         ",
"    ~!{         ",
"    ]!^         ",
"     /(         ",
"     _:<  [     ",
"      }**|12    ",
"        34      ",
"                ",
"                "};
