/* XPM */
static char * diamond2_xpm[] = {
"17 18 103 2",
"  	c None",
". 	c #5BA9A9",
"+ 	c #459292",
"@ 	c #5AA9A9",
"# 	c #D3F9F9",
"$ 	c #428C8C",
"% 	c #4DA0A0",
"& 	c #5BACAC",
"* 	c #D0F7F7",
"= 	c #D5FAFA",
"- 	c #3E8484",
"; 	c #4E9D9D",
"> 	c #51A5A5",
", 	c #78C0C0",
"' 	c #CBFCFC",
") 	c #377777",
"! 	c #438E8E",
"~ 	c #4FA4A4",
"{ 	c #4EA2A2",
"] 	c #68C0C0",
"^ 	c #9CEFEF",
"/ 	c #3A7D7D",
"( 	c #408888",
"_ 	c #50A1A1",
": 	c #58B4B4",
"< 	c #54B0B0",
"[ 	c #69C1C1",
"} 	c #A9FEFE",
"| 	c #F7FFFF",
"1 	c #3C7F7F",
"2 	c #387979",
"3 	c #4D9999",
"4 	c #52A1A1",
"5 	c #5CBABA",
"6 	c #56B5B5",
"7 	c #AAFFFF",
"8 	c #D7FFFF",
"9 	c #DDFFFF",
"0 	c #F3FFFF",
"a 	c #295B5B",
"b 	c #3A7B7B",
"c 	c #3D8282",
"d 	c #4F9999",
"e 	c #5AB4B4",
"f 	c #61C8C8",
"g 	c #9CF9F9",
"h 	c #B1FBFB",
"i 	c #D1FBFB",
"j 	c #CCF5F5",
"k 	c #1E4545",
"l 	c #224C4C",
"m 	c #295151",
"n 	c #396B6B",
"o 	c #3A7878",
"p 	c #3F8181",
"q 	c #387474",
"r 	c #448585",
"s 	c #58A4A4",
"t 	c #569E9E",
"u 	c #57A4A4",
"v 	c #56A2A2",
"w 	c #62B4B4",
"x 	c #78D1D1",
"y 	c #79D2D2",
"z 	c #1B4242",
"A 	c #294A4A",
"B 	c #224343",
"C 	c #254747",
"D 	c #204242",
"E 	c #285555",
"F 	c #438686",
"G 	c #4B9191",
"H 	c #5AAFAF",
"I 	c #5FC1C1",
"J 	c #64C4C4",
"K 	c #81D6D6",
"L 	c #204343",
"M 	c #4A9191",
"N 	c #5DB2B2",
"O 	c #61BDBD",
"P 	c #5DBABA",
"Q 	c #7BD2D2",
"R 	c #274848",
"S 	c #1F4141",
"T 	c #265353",
"U 	c #499090",
"V 	c #58ADAD",
"W 	c #66CDCD",
"X 	c #80D5D5",
"Y 	c #1E3F3F",
"Z 	c #183B3B",
"` 	c #234C4C",
" .	c #478D8D",
"..	c #60BFBF",
"+.	c #76D2D2",
"@.	c #183939",
"#.	c #1B3F3F",
"$.	c #255151",
"%.	c #52A2A2",
"&.	c #6DD0D0",
"*.	c #204848",
"=.	c #427E7E",
"-.	c #254F4F",
"                                  ",
"                .                 ",
"              + @ #               ",
"            $ % & * =             ",
"          - ; > , ' = =           ",
"        ) ! ~ { ] ^ = = =         ",
"      / ( _ : < [ } = | = =       ",
"    1 2 3 4 5 6 [ 7 8 9 0 = =     ",
"  a b c d e f 6 [ g h i j # = =   ",
"  k l m n o p q r s t u v w x y   ",
"    z A A B C D E F G H I J K     ",
"      A A A A L E M N O P Q       ",
"        A A R S T U V W X         ",
"          A Y Z `  ...+.          ",
"            @.#.$.%.&.            ",
"              @.*.=.              ",
"                -.                ",
"                                  "};
