/* XPM */
static char * disk_xpm[] = {
"16 16 27 1",
" 	c None",
".	c #165ABF",
"+	c #746C6B",
"@	c #766A6A",
"#	c #786C6C",
"$	c #8B7E7D",
"%	c #766D69",
"&	c #AEA09A",
"*	c #706A68",
"=	c #867979",
"-	c #A99A96",
";	c #313231",
">	c #7C7371",
",	c #776F6F",
"'	c #918482",
")	c #AE9F9A",
"!	c #A0928E",
"~	c #615C5A",
"{	c #887D7B",
"]	c #837B7F",
"^	c #B1A39F",
"/	c #A1938F",
"(	c #7B6F6F",
"_	c #7C7471",
":	c #837876",
"<	c #FFFFFF",
"[	c #212624",
"                ",
"                ",
"   ..+@#$%&..   ",
"  ...*#=-;>...  ",
"  ...,')!~{...  ",
"  ...]^/(_:...  ",
"  ............  ",
"  ............  ",
"  ..<<<<<<<<..  ",
"  ..<[[[[[[<..  ",
"  ..<<<<<<<<..  ",
"  ..<[[[[[[<..  ",
"  ..<<<<<<<<..  ",
"  ............  ",
"                ",
"                "};
