/* XPM */
static char * element_xpm[] = {
"16 16 4 1",
" 	c None",
".	c #7B8C96",
"+	c #5F6D75",
"@	c #FFFFFF",
"                ",
"  ............  ",
" .............. ",
" .+@........... ",
" .+@++++.++++.. ",
" .+@+@@+.+@@+.. ",
" ...+@@+.+@@+.. ",
" ...+@@+++@@+.. ",
" ...+@@@@@@@+.. ",
" ...+@@@@@@@+.. ",
" ...+@@+++@@+.. ",
" ...+@@+.+@@+.. ",
" ...+@@+.+@@+.. ",
" ...++++.++++.. ",
"  ............  ",
"                "};
