/* XPM */
static char * fastforward_xpm[] = {
"24 24 73 1",
" 	c None",
".	c #888888",
"+	c #C0C0C0",
"@	c #C0C4C0",
"#	c #282C38",
"$	c #303440",
"%	c #787878",
"&	c #989CA0",
"*	c #485070",
"=	c #686CA0",
"-	c #404060",
";	c #383840",
">	c #989898",
",	c #D0D0D0",
"'	c #98A0A0",
")	c #585C78",
"!	c #8890C0",
"~	c #707CA8",
"{	c #585C88",
"]	c #383C50",
"^	c #606468",
"/	c #A0A0A0",
"(	c #D8DCD8",
"_	c #606480",
":	c #909CC8",
"<	c #8894C0",
"[	c #7880B0",
"}	c #586080",
"|	c #505460",
"1	c #707470",
"2	c #B8B8B8",
"3	c #606880",
"4	c #98A0D0",
"5	c #98A4D0",
"6	c #888CB0",
"7	c #707088",
"8	c #585860",
"9	c #787C78",
"0	c #989CC8",
"a	c #98A0C8",
"b	c #A0A4D0",
"c	c #A8ACD0",
"d	c #989CB8",
"e	c #585C68",
"f	c #808480",
"g	c #586078",
"h	c #9094C0",
"i	c #9098C8",
"j	c #A0A8D0",
"k	c #606070",
"l	c #585858",
"m	c #B8BCB8",
"n	c #505870",
"o	c #808CB8",
"p	c #707488",
"q	c #606068",
"r	c #909490",
"s	c #707CB0",
"t	c #8088B8",
"u	c #9098C0",
"v	c #707890",
"w	c #606470",
"x	c #808080",
"y	c #404868",
"z	c #8084B0",
"A	c #787C98",
"B	c #484C58",
"C	c #787C80",
"D	c #B0B4B0",
"E	c #484C60",
"F	c #505060",
"G	c #989C98",
"H	c #B0B0B0",
"                        ",
"                        ",
"                        ",
"                        ",
"                        ",
" .+         @.+         ",
" #$%        &#$%        ",
" *=-;>,     '*=-;>,     ",
" )!~{]^/(   /)!~{]^/(   ",
" _::<[}|12  /_::<[}|12  ",
" 34554:6789,/34554:6789,",
" _4044abcdef/_4044abcdef",
" gh<!i4jdklm/gh<!i4jdklm",
" noooadpqr  &noooadpqr  ",
" *stuvwx@   &*stuvwx@   ",
" yzABCD     &yzABCD     ",
" EFlm       &EFlm       ",
" lG         HlG         ",
"                        ",
"                        ",
"                        ",
"                        ",
"                        ",
"                        "};
