/* XPM */
static char * folder_xpm[] = {
"16 16 26 1",
" 	c None",
".	c #515151",
"+	c #FFFFFF",
"@	c #9B9358",
"#	c #9C9459",
"$	c #A9A261",
"%	c #E0DC84",
"&	c #F9F5A7",
"*	c #A1995C",
"=	c #E3E187",
"-	c #A19A5C",
";	c #F0ED95",
">	c #E5E487",
",	c #A69E5D",
"'	c #A59E5F",
")	c #E7E489",
"!	c #D5D17D",
"~	c #A69F5E",
"{	c #CFCC76",
"]	c #B5AF69",
"^	c #B7B26A",
"/	c #A49D5D",
"(	c #A39B5B",
"_	c #D7D37E",
":	c #F3EF99",
"<	c #F6F2A0",
"                ",
"     .          ",
"    .+..        ",
"   .++++..@@@#@ ",
" @@@@@@@@@@@$%@ ",
" @&&&&&&&&&&*=- ",
" @;&&&&&&&&&@>, ",
" @%&&&&&&&&&')@ ",
" @!&&&&&&&&&~{@ ",
" @]&&&&&&&&&^/  ",
"  (&&&&&&&&&_@  ",
"  @&&&&&&&&&:@  ",
"  @&&&&&&&&&<@  ",
"  @@@@@@@@@@@@  ",
"                ",
"                "};
