/* XPM */
static char * geom_xpm[] = {
"16 16 4 1",
" 	c None",
".	c #161616",
"+	c #4C4C4C",
"@	c #969696",
"              ..",
"           .+...",
"          ..... ",
"         ..@..+ ",
"      @...@@@.. ",
"    @......@..  ",
"  @...@@@@...   ",
" @.      @..    ",
"         @..    ",
" +       @.@    ",
" +       ..     ",
"         .@     ",
"  +      .      ",
"  @+    .@      ",
"     ++ @       ",
"                "};
