/* XPM */
static char * go_xpm[] = {
"17 13 3 1",
" 	c None",
".	c #3E3E34",
"+	c #FFFFFF",
"       .......   ",
"      .+++++++.  ",
"     .+++++++++. ",
"    .+++++++++++.",
"    .+++++++++++.",
"    .+++++++++++.",
"    .+++++++++++.",
"    .+++++++++++.",
"    .+++++++++++.",
"    .+++++++++++.",
"     .+++++++++. ",
"      .+++++++.  ",
"       .......   "};
