/* XPM */
static char * left_arrow1_xpm[] = {
"16 16 3 1",
" 	c None",
".	c #000000",
"+	c #6EC9E5",
"                ",
"       .        ",
"       .        ",
"      .+.       ",
"     .++.       ",
"    .+++.....   ",
"   .++++++++.   ",
"  .+++++++++.   ",
"..++++++++++.   ",
"  .+++++++++.   ",
"   .++++++++.   ",
"    .+++.....   ",
"     .++.       ",
"      .+.       ",
"       .        ",
"       .        "};
