/* XPM */
static char * methane_xpm[] = {
"16 16 153 2",
"  	c None",
". 	c #F2F2F2",
"+ 	c #EEEEEE",
"@ 	c #E1E1E1",
"# 	c #C7C7C7",
"$ 	c #C7DDCB",
"% 	c #D5DDD6",
"& 	c #D1D2D1",
"* 	c #B9B9B9",
"= 	c #F9F9F9",
"- 	c #FEFEFE",
"; 	c #FFFFFF",
"> 	c #FAFAFA",
", 	c #E0E0E0",
"' 	c #AFB0AF",
") 	c #75AC7D",
"! 	c #77C583",
"~ 	c #95C69C",
"{ 	c #BBCFBE",
"] 	c #BEC2BF",
"^ 	c #9C9C9C",
"/ 	c #F1F1F1",
"( 	c #E9E9E9",
"_ 	c #BDBDBD",
": 	c #84A489",
"< 	c #77D885",
"[ 	c #68BC75",
"} 	c #6CA875",
"| 	c #96AC99",
"1 	c #979A97",
"2 	c #747474",
"3 	c #ECECEC",
"4 	c #E4E4E4",
"5 	c #B8B8B8",
"6 	c #8FBD97",
"7 	c #81E690",
"8 	c #70CA7D",
"9 	c #5EA969",
"0 	c #5B8C62",
"a 	c #778579",
"b 	c #676867",
"c 	c #DDDDDD",
"d 	c #F7F7F7",
"e 	c #FDFDFD",
"f 	c #D0D0D0",
"g 	c #ACAEAE",
"h 	c #ABEAB8",
"i 	c #8AEE99",
"j 	c #73CF80",
"k 	c #61B06D",
"l 	c #4C8955",
"m 	c #4C6850",
"n 	c #555A56",
"o 	c #C2C2C2",
"p 	c #DADADA",
"q 	c #E5E5E5",
"r 	c #CECECE",
"s 	c #B4B4B4",
"t 	c #D1D5D4",
"u 	c #BEFDCE",
"v 	c #8DEF9B",
"w 	c #73CD7F",
"x 	c #60AE6C",
"y 	c #4C8A55",
"z 	c #3A603F",
"A 	c #4B554C",
"B 	c #A4ABA5",
"C 	c #ACAEAD",
"D 	c #D1D7D6",
"E 	c #E3FAEE",
"F 	c #B0FDBF",
"G 	c #86E593",
"H 	c #71C57D",
"I 	c #79B782",
"J 	c #82A487",
"K 	c #536E57",
"L 	c #74B47D",
"M 	c #81AE87",
"N 	c #8EC696",
"O 	c #A9EEB6",
"P 	c #BBFDCA",
"Q 	c #AFFDBE",
"R 	c #8FEE9E",
"S 	c #8BD996",
"T 	c #C4E6C9",
"U 	c #F3F6F3",
"V 	c #DBDBDB",
"W 	c #A3A5A3",
"X 	c #CBDECE",
"Y 	c #80C78A",
"Z 	c #76D583",
"` 	c #7FE38D",
" .	c #87EB96",
"..	c #8BED99",
"+.	c #84E492",
"@.	c #89D995",
"#.	c #D2EDD6",
"$.	c #FBFBFB",
"%.	c #B0B0B0",
"&.	c #777777",
"*.	c #D8DFD9",
"=.	c #A0CBA6",
"-.	c #68BA74",
";.	c #6EC77B",
">.	c #71CC7F",
",.	c #71CB7E",
"'.	c #6FC47B",
").	c #C1E5C6",
"!.	c #D7D7D7",
"~.	c #A8A8A8",
"{.	c #6D6D6D",
"].	c #D4D4D4",
"^.	c #C7D7C9",
"/.	c #5DA767",
"(.	c #60AE6B",
"_.	c #5FAD6A",
":.	c #73B27C",
"<.	c #F0F3F0",
"[.	c #F6F6F6",
"}.	c #E3E3E3",
"|.	c #BFBFBF",
"1.	c #929292",
"2.	c #626262",
"3.	c #BBBBBB",
"4.	c #C4C7C5",
"5.	c #A3B6A6",
"6.	c #629069",
"7.	c #4B8754",
"8.	c #4B8854",
"9.	c #769C7B",
"0.	c #D6D6D6",
"a.	c #D5D5D5",
"b.	c #BEBEBE",
"c.	c #9D9D9D",
"d.	c #737373",
"e.	c #5B5B5B",
"f.	c #9E9E9E",
"g.	c #9D9F9E",
"h.	c #828D84",
"i.	c #536C57",
"j.	c #3C5F41",
"k.	c #4C6950",
"l.	c #9D9F9D",
"m.	c #ABABAB",
"n.	c #A4A4A4",
"o.	c #909090",
"p.	c #727272",
"q.	c #5C5C5C",
"r.	c #767676",
"s.	c #6B6B6B",
"t.	c #595C5A",
"u.	c #4D554E",
"v.	c #636363",
"                                ",
"      . + @ #     $ % & *       ",
"    = - ; > , ' ) ! ~ { ] ^     ",
"  / - ; ; ; ( _ : < [ } | 1 2   ",
"  3 ; ; ; - 4 5 6 7 8 9 0 a b   ",
"  c d - e / f g h i j k l m n   ",
"  o p q @ r s t u v w x y z A   ",
"    B 5 s C D E F G H I J K     ",
"    L M N O P Q R S T U V W     ",
"  X Y Z `  ...+.@.#.; $., %.&.  ",
"  *.=.-.;.>.,.'.).; ; d !.~.{.  ",
"  ].^.) /.(._.:.<.> [.}.|.1.2.  ",
"  3.4.5.6.7.8.9.0.c a.b.c.d.e.  ",
"    f.g.h.i.j.k.l.m.n.o.p.q.    ",
"      r.s.t.u.    r.{.v.q.      ",
"                                "};
