/* XPM */
static char * pause_xpm[] = {
"24 24 22 1",
" 	c None",
".	c #585C58",
"+	c #303030",
"@	c #202838",
"#	c #6B729B",
"$	c #283048",
"%	c #282C38",
"&	c #797CA8",
"*	c #303450",
"=	c #283040",
"-	c #8083A8",
";	c #303850",
">	c #303040",
",	c #868DAF",
"'	c #383C50",
")	c #303840",
"!	c #8D94B6",
"~	c #404458",
"{	c #383C48",
"]	c #9094C0",
"^	c #98A0D0",
"/	c #384050",
"                        ",
"                        ",
"                        ",
"                        ",
"                        ",
"     .+++.    .+++.     ",
"     @###$    @###$     ",
"     %&&&*    %&&&*     ",
"     =---;    =---;     ",
"     >,,,'    >,,,'     ",
"     )!!!~    )!!!~     ",
"     {]]]{    {]]]{     ",
"     {^^^/    {^^^/     ",
"     {]]]{    {]]]{     ",
"     {!!!)    {!!!)     ",
"     ',,,>    ',,,>     ",
"     ;---=    ;---=     ",
"     *&&&%    *&&&%     ",
"     $###@    $###@     ",
"     .+++.    .+++.     ",
"                        ",
"                        ",
"                        ",
"                        "};
