/* XPM */
static char * polymer_xpm[] = {
"18 18 57 1",
" 	c None",
".	c #78CFED",
"+	c #72C9E7",
"@	c #61A9C2",
"#	c #78CEED",
"$	c #81E2FF",
"%	c #7BD8F9",
"&	c #6ABAD6",
"*	c #4A8295",
"=	c #DF9B86",
"-	c #FD6332",
";	c #FC5E2F",
">	c #D44D26",
",	c #877D7C",
"'	c #72C8E6",
")	c #7BD8F8",
"!	c #74CCEC",
"~	c #64AFCA",
"{	c #487D8F",
"]	c #BEB1AD",
"^	c #D5A99C",
"/	c #C1988C",
"(	c #A07F75",
"_	c #F96031",
":	c #FF6633",
"<	c #FE6030",
"[	c #DD5128",
"}	c #90351A",
"|	c #CBCBCB",
"1	c #60A7C0",
"2	c #69B9D5",
"3	c #63AEC9",
"4	c #5290A7",
"5	c #355E6C",
"6	c #756E6D",
"7	c #877671",
"8	c #9B9492",
"9	c #B19B95",
"0	c #EE572B",
"a	c #FB5E2F",
"b	c #EF572B",
"c	c #C64824",
"d	c #7D2E17",
"e	c #4A8094",
"f	c #467A8D",
"g	c #355D6B",
"h	c #2E4A54",
"i	c #BB4826",
"j	c #CF4B25",
"k	c #BF4623",
"l	c #94361B",
"m	c #5E2514",
"n	c #78868B",
"o	c #4B5C62",
"p	c #82341E",
"q	c #712C18",
"r	c #5D2616",
"                  ",
"                  ",
"                  ",
"                  ",
"                  ",
"                  ",
" .+@              ",
"#$%&*    =-;>,    ",
"')!~{]^/(_:<[}||  ",
"1234567890abcd    ",
" efgh    ijklm    ",
"  no      pqr     ",
"                  ",
"                  ",
"                  ",
"                  ",
"                  ",
"                  "};
