/* XPM */
static char * render_setup_xpm[] = {
"16 16 73 1",
" 	c None",
".	c #8E8E8E",
"+	c #FCE787",
"@	c #FAE063",
"#	c #F5DA5A",
"$	c #ECD773",
"%	c #E9DEAA",
"&	c #FDEA92",
"*	c #FEE053",
"=	c #FEE055",
"-	c #FEDF51",
";	c #FCDE4F",
">	c #EACD47",
",	c #FDEC9A",
"'	c #FEE25F",
")	c #FEE76B",
"!	c #FEE46B",
"~	c #FEE65F",
"{	c #DAC345",
"]	c #BFAB50",
"^	c #FBDD4E",
"/	c #E2CA47",
"(	c #CEB12B",
"_	c #FCEE9D",
":	c #FEE367",
"<	c #FEEC99",
"[	c #FEF5CD",
"}	c #FEF6C7",
"|	c #FEEE93",
"1	c #FADC4F",
"2	c #D2B42B",
"3	c #FAE57F",
"4	c #FEE365",
"5	c #FEEB95",
"6	c #FEF4C3",
"7	c #FEF2B9",
"8	c #FEEA8B",
"9	c #F6D84D",
"0	c #DBC146",
"a	c #CCB42B",
"b	c #F5E276",
"c	c #FEE15B",
"d	c #FEE975",
"e	c #FEE987",
"f	c #FEE46D",
"g	c #EAD149",
"h	c #D6BB3D",
"i	c #C1A628",
"j	c #EDDD92",
"k	c #FADC4D",
"l	c #FEE159",
"m	c #FCDE53",
"n	c #D9C346",
"o	c #B19B24",
"p	c #E3C746",
"q	c #F6DC4B",
"r	c #FADB4D",
"s	c #F5D74C",
"t	c #D3B630",
"u	c #BCA527",
"v	c #9F8820",
"w	c #D3C37A",
"x	c #D7C144",
"y	c #E0C445",
"z	c #DAC045",
"A	c #D5BA3C",
"B	c #A08A21",
"C	c #BDAF66",
"D	c #D0B62B",
"E	c #CAC4A1",
"F	c #AD9D46",
"G	c #A28C27",
"H	c #9E8823",
"                ",
"     ........   ",
"    . +@#$% ..  ",
"   .&*==-;>. .  ",
"  .,=')!~*.{].  ",
" .........^/(.  ",
" ._=:<[}|.1/2.  ",
" .3*45678.90a.  ",
" .b-cd8ef.ghi.  ",
" .jk-l''m.n2o.  ",
" . pqkrsg.tuv.  ",
" . wxyyzA.uB.   ",
" .  CaDai.v.    ",
" .   EFGH..     ",
" .........      ",
"                "};
