/* XPM */
static char * rewind_xpm[] = {
"24 24 73 1",
" 	c None",
".	c #989C98",
"+	c #585858",
"@	c #B0B0B0",
"#	c #B8BCB8",
"$	c #505060",
"%	c #484C60",
"&	c #989CA0",
"*	c #B0B4B0",
"=	c #787C80",
"-	c #484C58",
";	c #787C98",
">	c #8084B0",
",	c #404868",
"'	c #C0C4C0",
")	c #808080",
"!	c #606470",
"~	c #707890",
"{	c #9098C0",
"]	c #8088B8",
"^	c #707CB0",
"/	c #485070",
"(	c #909490",
"_	c #606068",
":	c #707488",
"<	c #989CB8",
"[	c #98A0C8",
"}	c #808CB8",
"|	c #505870",
"1	c #606070",
"2	c #A0A8D0",
"3	c #98A0D0",
"4	c #9098C8",
"5	c #8890C0",
"6	c #8894C0",
"7	c #9094C0",
"8	c #586078",
"9	c #A0A0A0",
"0	c #808480",
"a	c #585C68",
"b	c #A8ACD0",
"c	c #A0A4D0",
"d	c #989CC8",
"e	c #606480",
"f	c #D0D0D0",
"g	c #787C78",
"h	c #585860",
"i	c #707088",
"j	c #888CB0",
"k	c #909CC8",
"l	c #98A4D0",
"m	c #606880",
"n	c #B8B8B8",
"o	c #707470",
"p	c #505460",
"q	c #586080",
"r	c #7880B0",
"s	c #D8DCD8",
"t	c #606468",
"u	c #383C50",
"v	c #585C88",
"w	c #707CA8",
"x	c #585C78",
"y	c #989898",
"z	c #383840",
"A	c #404060",
"B	c #686CA0",
"C	c #98A0A0",
"D	c #787878",
"E	c #303440",
"F	c #282C38",
"G	c #C0C0C0",
"H	c #888888",
"                        ",
"                        ",
"                        ",
"                        ",
"                        ",
"                        ",
"         .+@         .+ ",
"       #+$%&       #+$% ",
"     *=-;>,&     *=-;>, ",
"   ')!~{]^/&   ')!~{]^/ ",
"  (_:<[}}}|&  (_:<[}}}| ",
"#+1<23456789#+1<2345678 ",
"0a<bc[33d3e90a<bc[33d3e ",
"fghijk3ll3m9fghijk3ll3m ",
"  nopqr6kke9  nopqr6kke ",
"   s9tuvw5x9   s9tuvw5x ",
"     fyzAB/C     fyzAB/ ",
"        DEF&        DEF ",
"         GH'         GH ",
"                        ",
"                        ",
"                        ",
"                        ",
"                        "};
