/* XPM */
static char * rotate3_xpm[] = {
"16 16 14 1",
" 	g None",
".	g #999999",
"+	g #2B2B2B",
"@	g #EAEAEA",
"#	g #C9C9C9",
"$	g #BEBEBE",
"%	g #CECECE",
"&	g #B3B3B3",
"*	g #B4B4B4",
"=	g #E0E0E0",
"-	g #E6E6E6",
";	g #EDEDED",
">	g #D6D6D6",
",	g #D0D0D0",
"       .+       ",
"       ++       ",
"      ++++      ",
"      ++++      ",
"       ++       ",
"    @#$++$#@    ",
"  %++++++++++%  ",
" &++   ++  ..+* ",
" +=    ++    .+ ",
" ++ +  ++    ++ ",
" -.+++;++  >++. ",
"   ,+++++ ++.   ",
"    ++.++ .     ",
"    +  ++       ",
"       ++       ",
"       ++       "};
