/* XPM */
static char * rotate1_xpm[] = {
"16 16 14 1",
" 	g None",
".	g #E6E6E6",
"+	g #2B2B2B",
"@	g #B3B3B3",
"#	g #999999",
"$	g #E0E0E0",
"%	g #CECECE",
"&	g #D0D0D0",
"*	g #EAEAEA",
"=	g #C9C9C9",
"-	g #EDEDED",
";	g #BEBEBE",
">	g #D6D6D6",
",	g #B4B4B4",
"                ",
"     .++@       ",
"     #+$+%      ",
"    &+  ++      ",
"  +++++  +*     ",
"   +++   +=     ",
"   #+-   +; ++  ",
"+++++++++++++++#",
"++++++++++++++++",
"         +; ++  ",
"   #+    +=     ",
"    +>  #+*     ",
"    #+  #+      ",
"     ++#+%      ",
"     #++,       ",
"                "};
