/* XPM */
static char * rotate2_xpm[] = {
"16 16 56 1",
" 	c None",
".	c #CACACA",
"+	c #8C8C8C",
"@	c #6B6B6B",
"#	c #CCCCCC",
"$	c #1F1F1F",
"%	c #000000",
"&	c #030303",
"*	c #CBCBCB",
"=	c #9D9D9D",
"-	c #040404",
";	c #494949",
">	c #B0B0B0",
",	c #4A4A4A",
"'	c #B6B6B6",
")	c #0F0F0F",
"!	c #DBDBDB",
"~	c #101010",
"{	c #080808",
"]	c #EBEBEB",
"^	c #929292",
"/	c #7E7E7E",
"(	c #939393",
"_	c #424242",
":	c #060606",
"<	c #BABABA",
"[	c #B3B3B3",
"}	c #282828",
"|	c #B4B4B4",
"1	c #272727",
"2	c #050505",
"3	c #323232",
"4	c #B7B7B7",
"5	c #1E1E1E",
"6	c #111111",
"7	c #575757",
"8	c #020202",
"9	c #515151",
"0	c #4E4E4E",
"a	c #505050",
"b	c #B1B1B1",
"c	c #292929",
"d	c #464646",
"e	c #A9A9A9",
"f	c #010101",
"g	c #E7E7E7",
"h	c #777777",
"i	c #E2E2E2",
"j	c #626262",
"k	c #D3D3D3",
"l	c #0B0B0B",
"m	c #D9D9D9",
"n	c #E0E0E0",
"o	c #909090",
"p	c #969696",
"q	c #8E8E8E",
"     .+@@+.     ",
"   #$%%&&%%$*   ",
"  =%-;>  >,-%=  ",
" '%)!      !~%' ",
" %{]        ]{% ",
"^%/          /%(",
"_:     <[     :_",
"-}    |%%<    12",
"%3    4%%[    3%",
"~5     <[     56",
"78            87",
">%9 0        a%b",
" c&d%       ef} ",
" g%%%      h8%i ",
" j%%%     k%lm  ",
"noppq      q    "};
