/* XPM */
static char * select_all_xpm[] = {
"16 16 25 1",
" 	c None",
".	c #FBFF8B",
"+	c #F8FF32",
"@	c #FE6432",
"#	c #FE6130",
"$	c #E15229",
"%	c #EEAA01",
"&	c #F56032",
"*	c #FF6633",
"=	c #FF6130",
"-	c #E45329",
";	c #9F3A1D",
">	c #E2552C",
",	c #F95C2E",
"'	c #EF572B",
")	c #C94924",
"!	c #8D3D25",
"~	c #B24728",
"{	c #C64824",
"]	c #BC4422",
"^	c #94361B",
"/	c #5F2413",
"(	c #7D341E",
"_	c #712D1A",
":	c #5E2717",
"           ..   ",
"   +++   .++++. ",
" .++++++.+@#$%. ",
".++@#$%++&*=-;+.",
".+&*=-;++>,')!+.",
".+>,')!+.~{]^/+ ",
" +~{]^/+.+(_:+. ",
" ++(_:++ .++..  ",
"  ++++++++.     ",
"    ..+@#$.+    ",
"    .+&*=-;+.   ",
"    .+>,')!+.   ",
"    .+~{]^/+.   ",
"     .+(_:.+    ",
"      ++++.     ",
"       ...      "};
