/* XPM */
static char * split_both_xpm[] = {
"16 16 26 1",
" 	c None",
".	c #7F7F7F",
"+	c #4D4D4D",
"@	c #808080",
"#	c #5F5F5F",
"$	c #505050",
"%	c #8A8A8A",
"&	c #777777",
"*	c #B9B9B9",
"=	c #3E3E3E",
"-	c #A7A7A7",
";	c #BEBEBE",
">	c #424242",
",	c #757575",
"'	c #BABABA",
")	c #C4C4C4",
"!	c #CACACA",
"~	c #797978",
"{	c #CCCCCC",
"]	c #6A6A6A",
"^	c #3F3F3F",
"/	c #828282",
"(	c #434343",
"_	c #494949",
":	c #4E4E4E",
"<	c #BFBFBF",
".++++++@#+++++$%",
"+&     *=     -+",
"+      ;>      +",
"+      ;>      +",
"+      ;>      +",
"+      ;>      +",
"+      ;>      +",
",')))))!~))))){,",
"]^>>>>>/(>>>>>_]",
"+      ;>      +",
"+      ;>      +",
"+      ;>      +",
"+      ;>      +",
"+      ;>      +",
":      <>      +",
"%++++++@#++++++%"};
