/* XPM */
static char * surface_xpm[] = {
"18 18 93 2",
"  	c None",
". 	c #DF9B86",
"+ 	c #FD6332",
"@ 	c #E0572F",
"# 	c #D44D26",
"$ 	c #F76337",
"% 	c #FD6130",
"& 	c #FC5F2F",
"* 	c #E6552A",
"= 	c #933C22",
"- 	c #76CCEA",
"; 	c #6BBCD8",
"> 	c #5A99B0",
", 	c #78CFED",
"' 	c #72C9E7",
") 	c #61A9C2",
"! 	c #AC6C58",
"~ 	c #FF6633",
"{ 	c #FD5F2F",
"] 	c #D84F27",
"^ 	c #8F3C23",
"/ 	c #7BD7F6",
"( 	c #80E1FF",
"_ 	c #77D1F0",
": 	c #61ABC5",
"< 	c #427080",
"[ 	c #78CEED",
"} 	c #81E2FF",
"| 	c #7BD8F9",
"1 	c #6ABAD6",
"2 	c #4A8295",
"3 	c #736561",
"4 	c #E8552A",
"5 	c #BD4522",
"6 	c #8F5443",
"7 	c #FC5E2F",
"8 	c #877D7C",
"9 	c #80C9E2",
"0 	c #71C7E6",
"a 	c #5DA3BC",
"b 	c #3A6675",
"c 	c #72C8E6",
"d 	c #7BD8F8",
"e 	c #74CCEC",
"f 	c #64AFCA",
"g 	c #487D8F",
"h 	c #BEB1AD",
"i 	c #D5A99C",
"j 	c #C1988C",
"k 	c #A07F75",
"l 	c #F96031",
"m 	c #FE6030",
"n 	c #DD5128",
"o 	c #90351A",
"p 	c #5E757D",
"q 	c #62ABC6",
"r 	c #4D879C",
"s 	c #2F525E",
"t 	c #60A7C0",
"u 	c #69B9D5",
"v 	c #63AEC9",
"w 	c #5290A7",
"x 	c #355E6C",
"y 	c #756E6D",
"z 	c #877671",
"A 	c #9B9492",
"B 	c #B19B95",
"C 	c #EE572B",
"D 	c #FB5E2F",
"E 	c #EF572B",
"F 	c #C64824",
"G 	c #7D2E17",
"H 	c #4F707D",
"I 	c #467B8E",
"J 	c #315764",
"K 	c #324D56",
"L 	c #4A8094",
"M 	c #467A8D",
"N 	c #355D6B",
"O 	c #2E4A54",
"P 	c #CBCBCB",
"Q 	c #BB4826",
"R 	c #CF4B25",
"S 	c #BF4623",
"T 	c #94361B",
"U 	c #5E2514",
"V 	c #566A71",
"W 	c #5E6F76",
"X 	c #78868B",
"Y 	c #4B5C62",
"Z 	c #82341E",
"` 	c #712C18",
" .	c #5D2616",
"                                    ",
"                                    ",
"                                    ",
"                                    ",
"        . + @ #                     ",
"        $ % & * =           - ; >   ",
"  , ' ) ! ~ { ] ^         / ( _ : < ",
"[ } | 1 2 3 4 5 6 . + 7 # 8 9 0 a b ",
"c d e f g h i j k l ~ m n o p q r s ",
"t u v w x y z A B C D E F G H I J K ",
"  L M N O   P     Q R S T U V W     ",
"    X Y     P       Z `  .    P     ",
"    P                 P       P     ",
"    P                 P             ",
"                                    ",
"                                    ",
"                                    ",
"                                    "};
