/* XPM */
static char * t1_xpm[] = {
"16 16 6 1",
" 	c None",
".	c #999999",
"+	c #666666",
"@	c #333333",
"#	c #000000",
"$	c #CCCCCC",
"..++..++..++..++",
"..++..++..++..++",
"++@@++@@++@@++@@",
"++@@++@@++###+@@",
"@@++@@++@@#$##++",
"@@++@@++@@#$$##+",
"###@###@###$$$##",
"#$#@#$#@#$$$$$$#",
"#$#+#$#+#$$$$$$#",
"###+###+###$$$##",
"++@@++@@++#$$##@",
"++@@++@@++#$##@@",
"@@++@@++@@###@++",
"@@++@@++@@++@@++",
"++..++..++..++..",
"++..++..++..++.."};
