/* XPM */
static char * tb_animate_xpm[] = {
"16 16 98 2",
"  	c None",
". 	c #A8ACA8",
"+ 	c #727272",
"@ 	c #C2C6C2",
"# 	c #5A5E5A",
"$ 	c #535969",
"% 	c #76777A",
"& 	c #A9ADA9",
"* 	c #D8DCD8",
"= 	c #323332",
"- 	c #737AA0",
"; 	c #757793",
"> 	c #63646E",
", 	c #888C8F",
"' 	c #C7CBCA",
") 	c #303030",
"! 	c #7E83AF",
"~ 	c #767EAC",
"{ 	c #878DB5",
"] 	c #717390",
"^ 	c #686976",
"/ 	c #9D9DA1",
"( 	c #C9CCC9",
"_ 	c #7F87B0",
": 	c #7A82B2",
"< 	c #7F86B6",
"[ 	c #9097C5",
"} 	c #868DAF",
"| 	c #686C7D",
"1 	c #74787D",
"2 	c #ABABAD",
"3 	c #8189B4",
"4 	c #868DBB",
"5 	c #858DBB",
"6 	c #868FBE",
"7 	c #9099C5",
"8 	c #8A92B9",
"9 	c #6B7494",
"0 	c #616474",
"a 	c #85888B",
"b 	c #B3B7B3",
"c 	c #868EBA",
"d 	c #949AC7",
"e 	c #929AC4",
"f 	c #909AC6",
"g 	c #929BC8",
"h 	c #919AC8",
"i 	c #828CBA",
"j 	c #697097",
"k 	c #4D526A",
"l 	c #707375",
"m 	c #B8BAB8",
"n 	c #8A92BB",
"o 	c #99A1CF",
"p 	c #9DA3CD",
"q 	c #9DA3CF",
"r 	c #9AA1CE",
"s 	c #8B94C2",
"t 	c #747CA7",
"u 	c #5B5E81",
"v 	c #565B69",
"w 	c #8B8E8F",
"x 	c #C8CAC8",
"y 	c #8992BA",
"z 	c #949DCC",
"A 	c #9A9ECE",
"B 	c #979DCA",
"C 	c #8B93BF",
"D 	c #6B7194",
"E 	c #525771",
"F 	c #6E727B",
"G 	c #A7ABA9",
"H 	c #CDD0CD",
"I 	c #8891B9",
"J 	c #8B95C1",
"K 	c #8E94C2",
"L 	c #7F87B3",
"M 	c #595E7C",
"N 	c #595D68",
"O 	c #949598",
"P 	c #CBCBCC",
"Q 	c #868BB6",
"R 	c #7C85AF",
"S 	c #6D7193",
"T 	c #525664",
"U 	c #7C7E7F",
"V 	c #C1C1C1",
"W 	c #383838",
"X 	c #727A9D",
"Y 	c #64677D",
"Z 	c #6C6E73",
"` 	c #A2A5A2",
" .	c #D7DBD7",
"..	c #777877",
"+.	c #6C727E",
"@.	c #919191",
"#.	c #C2C3C2",
"$.	c #989C98",
"                                ",
"    . + @                       ",
"    # $ % & *                   ",
"    = - ; > , '                 ",
"    ) ! ~ { ] ^ / (             ",
"    ) _ : < [ } | 1 2           ",
"    ) 3 4 5 6 7 8 9 0 a b       ",
"    ) c d e f g h i j k l m     ",
"    ) n o p q r s t u v w x     ",
"    ) y z A B C D E F G H       ",
"    ) I J K L M N O P           ",
"    ) Q R S T U V               ",
"    W X Y Z `  .                ",
"    ..+.@.#.                    ",
"      $.                        ",
"                                "};
