/* XPM */
static char * tb_isosurface_xpm[] = {
"16 16 83 1",
" 	c None",
".	c #6582A8",
"+	c #7C95B9",
"@	c #8EA4C6",
"#	c #93A9CA",
"$	c #8DA3C5",
"%	c #7B94B9",
"&	c #839BBE",
"*	c #98ADCD",
"=	c #728DB3",
"-	c #59789F",
";	c #718CB2",
">	c #819ABD",
",	c #6380A7",
"'	c #90A7C7",
")	c #94ABCC",
"!	c #9EB4D2",
"~	c #7E97BC",
"{	c #5C7BA2",
"]	c #6C88AE",
"^	c #5B7AA2",
"/	c #54749C",
"(	c #6784AB",
"_	c #5F7DA4",
":	c #42658D",
"<	c #A8BBD8",
"[	c #ADC1DC",
"}	c #9BB0D0",
"|	c #6B87AD",
"1	c #7590B5",
"2	c #6481A7",
"3	c #4E6E96",
"4	c #41648C",
"5	c #4A6C93",
"6	c #355A82",
"7	c #ACBFDA",
"8	c #A4B8D5",
"9	c #879FC2",
"0	c #7D96BA",
"a	c #52739B",
"b	c #395D85",
"c	c #285077",
"d	c #274F76",
"e	c #9CB1D0",
"f	c #99AECD",
"g	c #8BA2C5",
"h	c #7691B5",
"i	c #51719A",
"j	c #1E466E",
"k	c #1F486F",
"l	c #8FA6C7",
"m	c #A3B6D5",
"n	c #91A8C9",
"o	c #7793B7",
"p	c #2F557D",
"q	c #6F8AAF",
"r	c #88A1C3",
"s	c #748FB4",
"t	c #A7BBD6",
"u	c #6A86AC",
"v	c #6885AC",
"w	c #AABEDA",
"x	c #738EB3",
"y	c #44678F",
"z	c #5A79A0",
"A	c #627EA6",
"B	c #607EA5",
"C	c #6E8AAF",
"D	c #3A5E86",
"E	c #4C6D95",
"F	c #507099",
"G	c #9AAECF",
"H	c #8098BC",
"I	c #31577F",
"J	c #466890",
"K	c #375C84",
"L	c #2A5178",
"M	c #2E547C",
"N	c #708BB1",
"O	c #40638A",
"P	c #2B5279",
"Q	c #43668E",
"R	c #204971",
"                ",
"   .+++  @#$%   ",
"  .+&&*=-.;&>,  ",
" .+&')!~{]^/(_: ",
" +&'<[}%|123456 ",
" +&)78$;90(abcd ",
" +#efgh@)~(ibjk ",
"  ]%h;lmno,_^p  ",
"  {_qr)n~s't)u  ",
" lvus%0hs*[w*xy ",
" )ozA..B@[[<nCD ",
" l$-EiF^8w<GH^I ",
" +&;JKK/n)'~24L ",
"  ..iMjc.Nu-OP  ",
"   QbcR  QDIP   ",
"                "};
