/* XPM */
static char * to_eps_xpm[] = {
"16 16 3 1",
" 	c None",
".	c #000000",
"+	c #333333",
"                ",
".... ..... .... ",
".++. +.++. .+++ ",
".  +  .  . .    ",
". .   .... .    ",
"...   .+++ .... ",
".+.   .    +++. ",
". +   .       . ",
".  .  .    .  . ",
".... ...   .... ",
"++++ +++   ++++ ",
"                ",
" . . . . . . . .",
"................",
".+.+.+.+.+.+.+.+",
"++++++++++++++++"};
