/* XPM */
static char * track_xpm[] = {
"16 16 6 1",
" 	c None",
".	c #CCCCCC",
"+	c #999999",
"@	c #666666",
"#	c #333333",
"$	c #000000",
"..++..++..++..++",
"..++..++..++..++",
"++@@++@@++@@++@@",
"++@@++@@+...++@@",
"@@##@@##@.$..@##",
"@@##@@##@.$$..##",
".....$....$$$..$",
".$.$.$.$$$$$$$$.",
".$.$.$.$$$$$$$$.",
".....$....$$$..$",
"@@##@@##@.$$..##",
"@@##@@##@.$..@##",
"++@@++@@+...++@@",
"++@@++@@++@@++@@",
"..++..++..++..++",
"..++..++..++..++"};
