/* XPM */
static char * xrotate_xpm[] = {
"16 16 65 1",
" 	c None",
".	c #CACACA",
"+	c #8C8C8C",
"@	c #6B6B6B",
"#	c #CCCCCC",
"$	c #1F1F1F",
"%	c #000000",
"&	c #030303",
"*	c #CBCBCB",
"=	c #9D9D9D",
"-	c #040404",
";	c #494949",
">	c #B0B0B0",
",	c #4A4A4A",
"'	c #B6B6B6",
")	c #0F0F0F",
"!	c #DBDBDB",
"~	c #101010",
"{	c #080808",
"]	c #EBEBEB",
"^	c #929292",
"/	c #7E7E7E",
"(	c #292929",
"_	c #686868",
":	c #939393",
"<	c #424242",
"[	c #060606",
"}	c #DCDCDC",
"|	c #9C9C9C",
"1	c #DFDFDF",
"2	c #282828",
"3	c #B4B4B4",
"4	c #BABABA",
"5	c #272727",
"6	c #050505",
"7	c #323232",
"8	c #B7B7B7",
"9	c #B3B3B3",
"0	c #1E1E1E",
"a	c #DDDDDD",
"b	c #9A9A9A",
"c	c #A2A2A2",
"d	c #111111",
"e	c #575757",
"f	c #020202",
"g	c #6A6A6A",
"h	c #717171",
"i	c #515151",
"j	c #4E4E4E",
"k	c #505050",
"l	c #B1B1B1",
"m	c #464646",
"n	c #A9A9A9",
"o	c #010101",
"p	c #E7E7E7",
"q	c #777777",
"r	c #E2E2E2",
"s	c #626262",
"t	c #D3D3D3",
"u	c #0B0B0B",
"v	c #D9D9D9",
"w	c #E0E0E0",
"x	c #909090",
"y	c #969696",
"z	c #8E8E8E",
"     .+@@+.     ",
"   #$%%&&%%$*   ",
"  =%-;>  >,-%=  ",
" '%)!      !~%' ",
" %{]        ]{% ",
"^%/  (@  _(  /%:",
"<[   }%=|%1   [<",
"-2    3%%4    56",
"%7    8%%9    7%",
"~0   a%bc%}   0d",
"ef   (g  h(   fe",
">%i j        k%l",
" (&m%       no2 ",
" p%%%      qf%r ",
" s%%%     t%uv  ",
"wxyyz      z    "};
