/* XPM */
static char * xview_xpm[] = {
"16 16 37 1",
" 	c None",
".	c #5E5E5E",
"+	c #686868",
"@	c #B4B4B4",
"#	c #323232",
"$	c #E2E2E2",
"%	c #D6D6D6",
"&	c #080808",
"*	c #B7B7B7",
"=	c #1D1D1D",
"-	c #929292",
";	c #8B8B8B",
">	c #202020",
",	c #6E6E6E",
"'	c #3F3F3F",
")	c #3A3A3A",
"!	c #4C4C4C",
"~	c #0E0E0E",
"{	c #DEDEDE",
"]	c #BCBCBC",
"^	c #000000",
"/	c #6D6D6D",
"(	c #4A4A4A",
"_	c #E1E1E1",
":	c #919191",
"<	c #262626",
"[	c #444444",
"}	c #DBDBDB",
"|	c #0B0B0B",
"1	c #BEBEBE",
"2	c #DDDDDD",
"3	c #141414",
"4	c #969696",
"5	c #3C3C3C",
"6	c #5F5F5F",
"7	c #A2A2A2",
"8	c #0C0C0C",
"                ",
"                ",
"                ",
"                ",
"    .+   @#$    ",
"    %&*  =-     ",
"     ;> ,'      ",
"      )!~{      ",
"      ]^/       ",
"      '(~_      ",
"     :< .[      ",
"    }|1 234     ",
"    56   78{    ",
"                ",
"                ",
"                "};
