/* XPM */
static char * yrotate_xpm[] = {
"16 16 68 1",
" 	c None",
".	c #CACACA",
"+	c #8C8C8C",
"@	c #6B6B6B",
"#	c #CCCCCC",
"$	c #1F1F1F",
"%	c #000000",
"&	c #030303",
"*	c #CBCBCB",
"=	c #9D9D9D",
"-	c #040404",
";	c #494949",
">	c #B0B0B0",
",	c #4A4A4A",
"'	c #B6B6B6",
")	c #0F0F0F",
"!	c #DBDBDB",
"~	c #101010",
"{	c #080808",
"]	c #EBEBEB",
"^	c #929292",
"/	c #7E7E7E",
"(	c #1B1B1B",
"_	c #919191",
":	c #636363",
"<	c #939393",
"[	c #424242",
"}	c #060606",
"|	c #343434",
"1	c #A5A5A5",
"2	c #EAEAEA",
"3	c #282828",
"4	c #B2B2B2",
"5	c #3E3E3E",
"6	c #DEDEDE",
"7	c #171717",
"8	c #272727",
"9	c #050505",
"0	c #323232",
"a	c #828282",
"b	c #7D7D7D",
"c	c #1E1E1E",
"d	c #676767",
"e	c #111111",
"f	c #575757",
"g	c #020202",
"h	c #C4C4C4",
"i	c #414141",
"j	c #515151",
"k	c #4E4E4E",
"l	c #505050",
"m	c #B1B1B1",
"n	c #292929",
"o	c #464646",
"p	c #CFCFCF",
"q	c #A9A9A9",
"r	c #010101",
"s	c #E7E7E7",
"t	c #777777",
"u	c #E2E2E2",
"v	c #626262",
"w	c #D3D3D3",
"x	c #0B0B0B",
"y	c #D9D9D9",
"z	c #E0E0E0",
"A	c #909090",
"B	c #969696",
"C	c #8E8E8E",
"     .+@@+.     ",
"   #$%%&&%%$*   ",
"  =%-;>  >,-%=  ",
" '%)!      !~%' ",
" %{]        ]{% ",
"^%/   (  _:  /%<",
"[}    |1 &2   }[",
"-3    4567    89",
"%0     &ab    0%",
"~c     d%     ce",
"fg     hi     gf",
">%j k  5'    l%m",
" n&o% p%    qr3 ",
" s%%%      tg%u ",
" v%%%     w%xy  ",
"zABBC      C    "};
