/* XPM */
static char * yview_xpm[] = {
"16 16 37 1",
" 	c None",
".	c #D0D0D0",
"+	c #272727",
"@	c #DFDFDF",
"#	c #5C5C5C",
"$	c #878787",
"%	c #202020",
"&	c #868686",
"*	c #E0E0E0",
"=	c #020202",
"-	c #D2D2D2",
";	c #7E7E7E",
">	c #2C2C2C",
",	c #7F7F7F",
"'	c #3B3B3B",
")	c #DCDCDC",
"!	c #000000",
"~	c #1E1E1E",
"{	c #A5A5A5",
"]	c #3C3C3C",
"^	c #787878",
"/	c #B9B9B9",
"(	c #151515",
"_	c #9C9C9C",
":	c #575757",
"<	c #090909",
"[	c #B2B2B2",
"}	c #5A5A5A",
"|	c #4B4B4B",
"1	c #B5B5B5",
"2	c #A4A4A4",
"3	c #212121",
"4	c #353535",
"5	c #888888",
"6	c #C5C5C5",
"7	c #070707",
"8	c #E5E5E5",
"                ",
"                ",
"                ",
"                ",
"   .+@    #$    ",
"    %&   *=-    ",
"    ;>   ,'     ",
"    )!-  ~{     ",
"     ]^ /(      ",
"     _% :^      ",
"      <[<@      ",
"      }(|       ",
"      /!1       ",
"      23        ",
"      45        ",
"     678        "};
