/* XPM */
static char * zrotate_xpm[] = {
"16 16 57 1",
" 	c None",
".	c #CACACA",
"+	c #8C8C8C",
"@	c #6B6B6B",
"#	c #CCCCCC",
"$	c #1F1F1F",
"%	c #000000",
"&	c #030303",
"*	c #CBCBCB",
"=	c #9D9D9D",
"-	c #040404",
";	c #494949",
">	c #B0B0B0",
",	c #4A4A4A",
"'	c #B6B6B6",
")	c #0F0F0F",
"!	c #DBDBDB",
"~	c #101010",
"{	c #080808",
"]	c #EBEBEB",
"^	c #929292",
"/	c #7E7E7E",
"(	c #939393",
"_	c #424242",
":	c #060606",
"<	c #313131",
"[	c #282828",
"}	c #BBBBBB",
"|	c #272727",
"1	c #050505",
"2	c #323232",
"3	c #D0D0D0",
"4	c #1E1E1E",
"5	c #222222",
"6	c #111111",
"7	c #575757",
"8	c #020202",
"9	c #3D3D3D",
"0	c #515151",
"a	c #4E4E4E",
"b	c #505050",
"c	c #B1B1B1",
"d	c #292929",
"e	c #464646",
"f	c #A9A9A9",
"g	c #010101",
"h	c #E7E7E7",
"i	c #777777",
"j	c #E2E2E2",
"k	c #626262",
"l	c #D3D3D3",
"m	c #0B0B0B",
"n	c #D9D9D9",
"o	c #E0E0E0",
"p	c #909090",
"q	c #969696",
"r	c #8E8E8E",
"     .+@@+.     ",
"   #$%%&&%%$*   ",
"  =%-;>  >,-%=  ",
" '%)!      !~%' ",
" %{]        ]{% ",
"^%/          /%(",
"_:    <%%%    :_",
"-[      };    |1",
"%2     3|     2%",
"~4     5      46",
"78    9%%%    87",
">%0 a        b%c",
" d&e%       fg[ ",
" h%%%      i8%j ",
" k%%%     l%mn  ",
"opqqr      r    "};
