/* XPM */
static char * zview_xpm[] = {
"16 16 26 1",
" 	c None",
".	c #6B6B6B",
"+	c #272727",
"@	c #3F3F3F",
"#	c #DEDEDE",
"$	c #CFCFCF",
"%	c #C4C4C4",
"&	c #151515",
"*	c #5A5A5A",
"=	c #5F5F5F",
"-	c #232323",
";	c #A2A2A2",
">	c #060606",
",	c #CCCCCC",
"'	c #D8D8D8",
")	c #0C0C0C",
"!	c #909090",
"~	c #2F2F2F",
"{	c #4F4F4F",
"]	c #686868",
"^	c #1E1E1E",
"/	c #ABABAB",
"(	c #030303",
"_	c #C1C1C1",
":	c #000000",
"<	c #1B1B1B",
"                ",
"                ",
"                ",
"                ",
"    .+++++@     ",
"    #$$$%&*     ",
"        =-      ",
"       ;>,      ",
"      ')!       ",
"      ~{        ",
"     ]^         ",
"    /(_         ",
"    {:::::<     ",
"                ",
"                ",
"                "};
